<?xml version="1.0" encoding="UTF-8"?><svg id="_レイヤー_2" data-name="レイヤー 2" xmlns="http://www.w3.org/2000/svg" viewBox="0 0 37.76 37.76"><defs><style>.cls-1 {
        fill: none;
      }

      .cls-2 {
        fill: #c4a25c;
      }

      .cls-3 {
        fill: #33a1db;
      }</style></defs><g id="_レイヤー_1-2" data-name="レイヤー 1"><g><polygon class="cls-3" points="18.73 37.76 18.73 37.76 18.72 37.76 18.73 37.76"/><polygon class="cls-3" points="37.76 18.73 37.76 18.72 37.76 18.73 37.76 18.73"/><polygon class="cls-3" points="37.76 .16 37.76 .16 37.76 .16 37.76 .16"/><polygon class="cls-3" points=".16 37.76 .16 37.76 .16 37.76 .16 37.76"/><polyline class="cls-2" points=".16 37.76 .16 37.76 0 37.76 0 37.61"/><polygon class="cls-2" points="37.76 37.6 37.76 37.6 37.76 37.6 37.76 37.6"/><polygon class="cls-2" points="37.6 37.76 37.6 37.76 37.6 37.76 37.6 37.76"/><polygon class="cls-2" points="37.76 19.04 37.76 19.03 37.76 19.04 37.76 19.04"/><polygon class="cls-2" points="19.04 37.76 19.04 37.76 19.04 37.76 19.04 37.76"/><polyline class="cls-2" points="19.04 37.76 19.04 37.76 18.73 37.76 18.73 37.76"/><polyline class="cls-2" points="37.76 18.73 37.76 18.73 37.76 19.03 37.76 19.04"/><rect class="cls-1" x="21.76" y="12.32" width="13.13" height="13.13" transform="translate(-5.06 25.56) rotate(-45)"/><rect class="cls-1" x="12.32" y="2.88" width="13.13" height="13.13" transform="translate(-1.15 16.12) rotate(-45)"/><polygon class="cls-1" points=".16 0 9.44 9.29 18.72 0 18.72 0 .16 0 .16 0"/><polygon class="cls-1" points="19.04 0 28.32 9.29 37.6 0 37.6 0 19.04 0 19.04 0"/><polygon class="cls-1" points="37.6 37.76 28.32 28.48 19.04 37.76 37.6 37.76"/><polygon class="cls-1" points="37.76 37.6 37.76 19.04 28.48 28.32 37.76 37.6"/><polygon class="cls-1" points="0 18.72 0 18.72 9.29 9.44 0 .16 0 .16 0 18.72"/><polygon class="cls-1" points="18.72 37.76 9.44 28.48 .16 37.76 18.72 37.76"/><polygon class="cls-1" points="37.76 .16 28.48 9.44 37.76 18.72 37.76 .16"/><rect class="cls-1" x="12.32" y="21.76" width="13.13" height="13.13" transform="translate(-14.49 21.65) rotate(-45)"/><polygon class="cls-1" points="0 19.04 0 37.6 0 37.6 9.29 28.32 0 19.04 0 19.04"/><rect class="cls-1" x="2.88" y="12.32" width="13.13" height="13.13" transform="translate(-10.59 12.21) rotate(-45)"/><rect class="cls-3" x="4.61" y="17.04" width=".22" height="13.13" transform="translate(-15.31 10.26) rotate(-45.01)"/><polygon class="cls-3" points="9.44 28.48 18.72 37.76 18.73 37.76 18.88 37.6 9.6 28.32 9.44 28.48"/><polygon class="cls-3" points="0 18.72 0 18.72 0 18.73 0 18.72"/><polygon class="cls-3" points="37.6 18.88 37.76 18.73 37.76 18.72 28.48 9.44 28.32 9.6 37.6 18.88"/><polygon class="cls-3" points="18.73 0 18.72 0 18.72 0 18.73 0"/><rect class="cls-3" x="23.49" y="-1.84" width=".22" height="13.13" transform="translate(3.57 18.07) rotate(-45)"/><polygon class="cls-3" points=".16 0 .16 0 .16 0 .16 0"/><polygon class="cls-3" points="0 .16 0 .16 0 .16 0 .16"/><polygon class="cls-3" points="0 37.6 .16 37.76 .16 37.76 9.44 28.48 9.29 28.32 0 37.6"/><rect class="cls-3" x="17.04" y="14.05" width="13.13" height=".22" transform="translate(-3.1 20.84) rotate(-45)"/><rect class="cls-3" x="7.6" y="23.49" width="13.13" height=".22" transform="translate(-12.54 16.93) rotate(-45)"/><polygon class="cls-3" points="28.32 9.29 28.48 9.44 37.76 .16 37.76 .16 37.6 0 28.32 9.29"/><rect class="cls-3" x="9.33" y="28.21" width=".22" height=".22" transform="translate(-17.26 14.97) rotate(-45)"/><rect class="cls-3" x="28.21" y="9.33" width=".22" height=".22" transform="translate(1.62 22.79) rotate(-45)"/><polygon class="cls-2" points="0 37.61 0 37.6 0 37.6 0 37.61"/><polygon class="cls-2" points="0 37.76 .16 37.76 0 37.6 0 37.61 0 37.76"/><rect class="cls-2" x="14.05" y="7.6" width=".22" height="13.13" transform="translate(-5.87 14.16) rotate(-45)"/><rect class="cls-2" x="4.61" y="-1.84" width=".22" height="13.13" transform="translate(-1.96 4.72) rotate(-45)"/><rect class="cls-2" x="23.49" y="17.04" width=".22" height="13.13" transform="translate(-9.78 23.6) rotate(-45)"/><polygon class="cls-2" points="28.48 28.32 28.32 28.48 37.6 37.76 37.6 37.76 37.76 37.6 37.76 37.6 28.48 28.32"/><polygon class="cls-2" points="0 .16 0 .16 .16 0 .16 0 0 0 0 .16"/><rect class="cls-2" x="18.77" y="18.77" width=".22" height=".22" transform="translate(-7.82 18.88) rotate(-45)"/><polygon class="cls-2" points="37.76 37.76 37.76 37.6 37.6 37.76 37.76 37.76"/><polygon class="cls-2" points="37.61 0 37.6 0 37.6 0 37.61 0"/><polygon class="cls-2" points="37.76 .16 37.76 0 37.61 0 37.6 0 37.76 .16"/><rect class="cls-2" x="7.6" y="4.61" width="13.13" height=".22" transform="translate(.81 11.4) rotate(-45)"/><polygon class="cls-2" points="19.04 0 19.03 0 19.04 0 19.04 0"/><rect class="cls-2" x="-1.84" y="14.05" width="13.13" height=".22" transform="translate(-8.63 7.49) rotate(-45)"/><polygon class="cls-2" points="0 19.04 0 19.03 0 19.04 0 19.04"/><polygon class="cls-2" points="0 19.03 0 19.04 .16 18.88 0 18.72 0 18.73 0 19.03"/><polygon class="cls-2" points="18.72 0 18.88 .16 19.04 0 19.03 0 18.73 0 18.72 0"/><rect class="cls-2" x="9.33" y="9.33" width=".22" height=".22" transform="translate(-3.91 9.44) rotate(-45)"/><polygon class="cls-2" points="28.48 28.32 37.76 19.04 37.76 19.03 37.6 18.88 28.32 28.16 28.48 28.32"/><polygon class="cls-2" points="18.88 37.6 19.04 37.76 19.04 37.76 28.32 28.48 28.16 28.32 18.88 37.6"/><polygon class="cls-2" points="19.04 37.76 18.88 37.6 18.73 37.76 19.04 37.76"/><polygon class="cls-2" points="37.76 18.73 37.6 18.88 37.76 19.03 37.76 18.73"/><rect class="cls-2" x="28.21" y="28.21" width=".22" height=".22" transform="translate(-11.73 28.32) rotate(-45)"/></g></g></svg>