<?xml version="1.0" encoding="utf-8"?><!--Generator: Adobe Illustrator 27.7.0, SVG Export Plug-In . SVG Version: 6.00 Build 0)--><svg version="1.1" id="_レイヤー_2" xmlns="http://www.w3.org/2000/svg" xmlns:xlink="http://www.w3.org/1999/xlink" x="0px" y="0px" viewBox="0 0 37.8 37.8" style="enable-background:new 0 0 37.8 37.8" xml:space="preserve"><style type="text/css">.st0{fill:#33A1DB;}
	.st1{fill:#C4A25C;}
	.st2{fill:none;}
	.st3{fill:#90CCEB;}
	.st4{fill:#C2A664;}</style><g id="_レイヤー_1-2"><g><polygon class="st0" points="18.7,37.8 18.7,37.8 18.7,37.8 		"/><polygon class="st0" points="37.8,18.7 37.8,18.7 37.8,18.7 		"/><polygon class="st0" points="37.8,0.2 37.8,0.2 37.8,0.2 		"/><polygon class="st0" points="0.2,37.8 0.2,37.8 0.2,37.8 		"/><polyline class="st1" points="0.2,37.8 0.2,37.8 0,37.8 0,37.6 		"/><polygon class="st1" points="37.8,37.6 37.8,37.6 37.8,37.6 		"/><polygon class="st1" points="37.6,37.8 37.6,37.8 37.6,37.8 		"/><polygon class="st1" points="37.8,19 37.8,19 37.8,19 		"/><polygon class="st1" points="19,37.8 19,37.8 19,37.8 		"/><polyline class="st1" points="19,37.8 19,37.8 18.7,37.8 18.7,37.8 		"/><polyline class="st1" points="37.8,18.7 37.8,18.7 37.8,19 37.8,19 		"/><rect x="21.8" y="12.3" transform="matrix(0.7071 -0.7071 0.7071 0.7071 -5.0582 25.5583)" class="st2" width="13.1" height="13.1"/><rect x="12.3" y="2.9" transform="matrix(0.7071 -0.7071 0.7071 0.7071 -1.148 16.1182)" class="st2" width="13.1" height="13.1"/><polygon class="st2" points="0.2,0 9.4,9.3 18.7,0 18.7,0 0.2,0 		"/><polygon class="st2" points="19,0 28.3,9.3 37.6,0 37.6,0 19,0 		"/><polygon class="st2" points="37.6,37.8 28.3,28.5 19,37.8 		"/><polygon class="st2" points="37.8,37.6 37.8,19 28.5,28.3 		"/><polygon class="st2" points="0,18.7 0,18.7 9.3,9.4 0,0.2 0,0.2 		"/><polygon class="st2" points="18.7,37.8 9.4,28.5 0.2,37.8 		"/><polygon class="st2" points="37.8,0.2 28.5,9.4 37.8,18.7 		"/><rect x="12.3" y="21.8" transform="matrix(0.7071 -0.7071 0.7071 0.7071 -14.4954 21.6552)" class="st2" width="13.1" height="13.1"/><polygon class="st2" points="0,19 0,37.6 0,37.6 9.3,28.3 0,19 		"/><rect x="2.9" y="12.3" transform="matrix(0.7071 -0.7071 0.7071 0.7071 -10.5882 12.208)" class="st2" width="13.1" height="13.1"/><rect x="4.6" y="17" transform="matrix(0.707 -0.7072 0.7072 0.707 -15.3145 10.2571)" class="st3" width="0.2" height="13.1"/><polygon class="st3" points="9.4,28.5 18.7,37.8 18.7,37.8 18.9,37.6 9.6,28.3 		"/><polygon class="st0" points="0,18.7 0,18.7 0,18.7 		"/><polygon class="st3" points="37.6,18.9 37.8,18.7 37.8,18.7 28.5,9.4 28.3,9.6 		"/><polygon class="st0" points="18.7,0 18.7,0 18.7,0 		"/><rect x="23.5" y="-1.8" transform="matrix(0.7071 -0.7071 0.7071 0.7071 3.572 18.0703)" class="st3" width="0.2" height="13.1"/><polygon class="st0" points="0.2,0 0.2,0 0.2,0 		"/><polygon class="st0" points="0,0.2 0,0.2 0,0.2 		"/><polygon class="st3" points="0,37.6 0.2,37.8 0.2,37.8 9.4,28.5 9.3,28.3 		"/><rect x="17" y="14.1" transform="matrix(0.7071 -0.7071 0.7071 0.7071 -3.1002 20.8382)" class="st3" width="13.1" height="0.2"/><rect x="7.6" y="23.5" transform="matrix(0.7071 -0.7071 0.7071 0.7071 -12.5403 16.9281)" class="st3" width="13.1" height="0.2"/><polygon class="st3" points="28.3,9.3 28.5,9.4 37.8,0.2 37.8,0.2 37.6,0 		"/><rect x="9.3" y="28.2" transform="matrix(0.7071 -0.7071 0.7071 0.7071 -17.2604 14.9701)" class="st0" width="0.2" height="0.2"/><rect x="28.2" y="9.3" transform="matrix(0.7071 -0.7071 0.7071 0.7071 1.6199 22.7904)" class="st0" width="0.2" height="0.2"/><polygon class="st1" points="0,37.6 0,37.6 0,37.6 		"/><polygon class="st4" points="0,37.8 0.2,37.8 0,37.6 0,37.6 		"/><rect x="14" y="7.6" transform="matrix(0.7071 -0.7071 0.7071 0.7071 -5.8681 14.1602)" class="st4" width="0.2" height="13.1"/><rect x="4.6" y="-1.8" transform="matrix(0.7071 -0.7071 0.7071 0.7071 -1.958 4.7201)" class="st4" width="0.2" height="13.1"/><rect x="23.5" y="17" transform="matrix(0.7071 -0.7071 0.7071 0.7071 -9.7782 23.6003)" class="st4" width="0.2" height="13.1"/><polygon class="st4" points="28.5,28.3 28.3,28.5 37.6,37.8 37.6,37.8 37.8,37.6 37.8,37.6 		"/><polygon class="st4" points="0,0.2 0,0.2 0.2,0 0.2,0 0,0 		"/><rect x="18.8" y="18.8" transform="matrix(0.7071 -0.7071 0.7071 0.7071 -7.8202 18.8802)" class="st1" width="0.2" height="0.2"/><polygon class="st4" points="37.8,37.8 37.8,37.6 37.6,37.8 		"/><polygon class="st1" points="37.6,0 37.6,0 37.6,0 		"/><polygon class="st4" points="37.8,0.2 37.8,0 37.6,0 37.6,0 		"/><rect x="7.6" y="4.6" transform="matrix(0.7071 -0.7071 0.7071 0.7071 0.8099 11.3981)" class="st4" width="13.1" height="0.2"/><polygon class="st1" points="19,0 19,0 19,0 		"/><rect x="-1.8" y="14.1" transform="matrix(0.7071 -0.7071 0.7071 0.7071 -8.6302 7.488)" class="st4" width="13.1" height="0.2"/><polygon class="st1" points="0,19 0,19 0,19 		"/><polygon class="st4" points="0,19 0,19 0.2,18.9 0,18.7 0,18.7 		"/><polygon class="st4" points="18.7,0 18.9,0.2 19,0 19,0 18.7,0 		"/><rect x="9.3" y="9.3" transform="matrix(0.7071 -0.7071 0.7071 0.7071 -3.9101 9.4401)" class="st1" width="0.2" height="0.2"/><polygon class="st4" points="28.5,28.3 37.8,19 37.8,19 37.6,18.9 28.3,28.2 		"/><polygon class="st4" points="18.9,37.6 19,37.8 19,37.8 28.3,28.5 28.2,28.3 		"/><polygon class="st4" points="19,37.8 18.9,37.6 18.7,37.8 		"/><polygon class="st4" points="37.8,18.7 37.6,18.9 37.8,19 		"/><rect x="28.2" y="28.2" transform="matrix(0.7071 -0.7071 0.7071 0.7071 -11.7304 28.3204)" class="st1" width="0.2" height="0.2"/></g></g></svg>