<?xml version="1.0" encoding="UTF-8"?><svg id="_レイヤー_2" data-name="レイヤー 2" xmlns="http://www.w3.org/2000/svg" viewBox="0 0 260.25 21.22"><defs><style>.cls-1 {
        fill: #c4a25c;
        stroke-width: 0px;
      }</style></defs><g id="_編集モード" data-name="編集モード"><g><path class="cls-1" d="m230.78,15.34c-.82,0-1.53-.38-2.1-1.13-.04-.05-.09-.08-.15-.08h0c-.06,0-.11.02-.15.07-.65.76-1.36,1.12-2.16,1.12-1.81,0-2.46-1.91-2.46-3.7,0-1.1.23-2.51.46-3.87l.08-.46c0-.05.04-.1.08-.13.21-.13.63-.35.89-.35.17,0,.26.1.26.3,0,.16-.09.74-.18,1.19-.19,1.1-.37,2.25-.37,3.25,0,1.51.43,3.13,1.63,3.13.54,0,1.1-.34,1.61-.98.05-.06.06-.14.02-.21-.63-1.21-.73-2.53-.73-3.21,0-1.81.64-3.13,1.51-3.13.7,0,1.16.81,1.16,2.06,0,1.14-.37,2.56-.97,3.71-.03.06-.03.12,0,.18.53,1.03,1.22,1.58,2,1.58.89,0,1.65-.74,2.12-2.08.04-.1-.01-.21-.11-.25-1.18-.47-1.95-1.73-1.95-3.2s.78-2.58,1.77-2.58c1.14,0,1.73,1.43,1.73,2.85,0,.67-.14,1.52-.4,2.32-.02.06,0,.12.03.17.04.05.09.08.15.08h0c1.12,0,2-.7,2.42-1.88.03-.07.05-.12.07-.14.28-.82.74-1.55,1.35-2.12.69-.67,1.58-1.08,2.32-1.08.85,0,1.4.56,1.4,1.42,0,.98-.67,1.7-1.24,2.14-1.05.81-2.34,1.16-2.71,1.24-.09.02-.16.11-.15.2.08,1.7,1.05,2.88,2.36,2.88,1.15,0,2.69-1.12,3.54-4.26.02-.06.04-.13.08-.2.28-.91.77-1.71,1.43-2.33.69-.67,1.58-1.08,2.32-1.08.85,0,1.4.56,1.4,1.42,0,.98-.67,1.7-1.24,2.14-1.05.81-2.34,1.16-2.71,1.24-.09.02-.16.11-.15.2.08,1.7,1.05,2.88,2.36,2.88s3.11-1.46,3.83-5.58l.25-1.45c.01-.06,0-.12-.05-.16-.04-.04-.09-.07-.15-.07,0,0-.64.04-.64.04-.08,0-.16-.07-.17-.16,0-.05-.01-.11-.01-.17,0-.04,0-.08,0-.12.01-.09.09-.16.18-.16l.84-.03c.09,0,.17-.07.19-.16.08-.46.17-1,.26-1.53.11-.65.2-1.15.27-1.57,0-.06.04-.1.09-.13.28-.15.72-.31.96-.31.17,0,.26.09.26.26,0,.21-.15.93-.38,2.01-.08.39-.16.75-.23,1.1-.01.06,0,.12.04.17.04.04.09.07.15.07,0,0,2.11-.15,2.17-.15.08,0,.16.06.17.15,0,.05.01.1.01.15,0,.07-.02.16-.04.24-.03.07-.09.12-.17.12l-2.35.11c-.09,0-.17.07-.18.16-.24,1.34-.5,2.88-.5,4.15,0,2.26.73,3.07,1.42,3.07.33,0,2-.26,2.94-5.49.02-.09.09-.15.18-.15.07,0,.13.04.16.08.03.04.06.09.05.14-.88,4.98-2.47,6.03-3.65,6.03-.48,0-2.08-.2-2.31-2.83,0-.09-.07-.16-.16-.18-.01,0-.02,0-.04,0-.07,0-.14.04-.18.11-.9,1.84-2.22,2.9-3.62,2.9-1.23,0-2.72-.83-3.11-2.66-.02-.08-.08-.14-.17-.15,0,0-.02,0-.03,0-.07,0-.14.04-.17.11-.9,1.72-2.19,2.71-3.53,2.71-1.52,0-3.12-1.15-3.22-3.36,0-.08-.05-.14-.12-.17-.02,0-.05-.01-.07-.01-.05,0-.1.02-.13.05-.67.63-1.45.76-1.98.76-.08,0-.21,0-.21,0-.08,0-.15.04-.18.11-.45.99-1.48,2.64-3.25,2.64Zm-1.92-7.55c-.05,0-.1.03-.14.07-.21.26-.34.94-.34,1.75s.13,1.65.37,2.4c.02.08.1.13.18.14h0c.08,0,.15-.05.18-.12.27-.67.42-1.48.42-2.27,0-.9-.2-1.62-.53-1.91-.04-.03-.08-.05-.13-.05,0,0-.01,0-.02,0Zm3.77-.42c-.54,0-.79.76-.79,1.48,0,1.18.6,2.32,1.5,2.83.03.02.06.03.1.03.03,0,.05,0,.08-.02.06-.03.1-.08.11-.14.12-.54.18-1.08.18-1.57,0-1.29-.44-2.62-1.18-2.62Zm7.66.08c-.41,0-1.01.2-1.55,1.18-.39.66-.64,1.43-.71,2.24,0,.06.02.12.06.16.04.03.08.05.13.05.01,0,.03,0,.04,0,1.43-.3,2.87-1.23,2.87-2.61,0-.65-.31-1.02-.85-1.02Zm7.01,0c-.41,0-1.01.2-1.55,1.18-.39.65-.64,1.43-.71,2.24,0,.06.02.12.06.16.04.03.08.05.13.05.01,0,.03,0,.04,0,1.43-.3,2.87-1.23,2.87-2.61,0-.65-.31-1.02-.85-1.02Z"/><path class="cls-1" d="m259.29,15.34c-.54,0-.96-.43-.96-.98s.41-.98.96-.98.96.43.96.98-.44.98-.96.98Z"/><path class="cls-1" d="m202.78,21.22c-1.31,0-2.42-1.1-2.42-2.4,0-.6.25-1.19.7-1.64.03-.03.08-.05.13-.05.04,0,.08.01.11.03.07.05.1.15.06.23-.12.25-.19.55-.19.85,0,1.24.9,2.28,1.97,2.28.84,0,1.57-.63,1.95-1.69.52-1.45.73-3.5.88-5.49,0-.09-.05-.18-.14-.2-.02,0-.03,0-.05,0-.07,0-.14.04-.18.11-.65,1.33-1.43,2.01-2.32,2.01s-1.57-.74-1.84-1.92c-.02-.08-.09-.14-.17-.15,0,0-.01,0-.02,0-.08,0-.15.05-.18.12-.59,1.34-1.3,2-2.17,2-1.19,0-1.91-1.1-1.91-2.95,0-1.02.21-2,.38-2.79.12-.55.21-.96.21-1.26,0-.44-.22-.69-.61-.69-.76,0-1.68,1.14-2.4,2.97-.63,1.61-.88,3.17-1.03,4.35,0,.06-.05.11-.1.14-.26.13-.53.21-.7.21-.52,0-.66-.93-.69-1.49,0-.09-.07-.16-.16-.18-.01,0-.03,0-.04,0-.07,0-.14.04-.17.11-.74,1.42-1.52,1.59-2.05,1.59-.91,0-1.54-.63-1.76-1.76-.02-.08-.08-.15-.17-.16,0,0-.02,0-.02,0-.08,0-.15.04-.18.11-.57,1.21-1.23,1.81-2.03,1.81-.89,0-1.93-.81-1.93-3.09,0-.85.15-1.68.27-2.35.09-.48.16-.89.16-1.17,0-.49-.2-.75-.57-.75-.31,0-.64.15-.96.43-.52.47-.98,1.27-1.34,2.32-.55,1.52-.7,3.03-.76,4.19,0,.06-.04.12-.1.15-.31.17-.6.24-.74.24-.61,0-.78-1.16-.82-2.14,0-.09-.07-.17-.16-.18-.01,0-.03,0-.04,0-.08,0-.15.04-.18.11-.68,1.47-1.57,2.25-2.57,2.25-.48,0-2.07-.2-2.31-2.81,0-.09-.07-.16-.16-.17-.01,0-.02,0-.04,0-.07,0-.14.04-.18.11-.9,1.83-2.22,2.88-3.61,2.88s-2.57-.91-3.02-2.31c-.03-.08-.1-.13-.18-.14h0c-.08,0-.15.05-.18.12-.61,1.55-1.34,2.3-2.24,2.3s-1.93-.82-1.93-3.13c0-.97.2-1.9.37-2.64.11-.51.2-.91.2-1.19,0-.33-.11-.73-.61-.73-.77,0-1.7,1.19-2.32,2.97-.49,1.37-.76,2.7-.88,4.31,0,.06-.04.11-.09.14-.29.18-.54.24-.67.24-.5,0-.81-1.1-.81-2.12,0-1.31.24-2.6.42-3.53.11-.57.19-1.01.19-1.28,0-.48-.18-.71-.55-.71-.76,0-1.68,1.13-2.4,2.95-.63,1.61-.88,3.17-1.03,4.35,0,.06-.05.11-.1.14-.26.13-.53.21-.7.21-.45,0-.71-.73-.71-2.01,0-.38.02-.78.07-1.24,0-.08-.04-.16-.11-.2-.03-.01-.06-.02-.09-.02-.05,0-.1.02-.14.05-.71.68-1.54.85-2.11.87-.08,0-.14.05-.17.12-.53,1.2-1.66,2.48-3.26,2.48-1.7,0-2.89-1.44-2.89-3.5,0-1.66.75-3.18,1.95-3.97.03-.02.06-.03.1-.03.05,0,.11.02.14.06.06.07.06.18,0,.24-.67.72-.97,2.16-.97,3.18,0,1.94.92,3.34,2.18,3.34.85,0,1.61-.67,2.03-1.8.02-.05.02-.11,0-.16-.02-.05-.07-.09-.12-.1-1.58-.43-2.68-1.86-2.68-3.49,0-1.39.8-2.4,1.91-2.4s2.24,1.04,2.24,3.32c0,.61-.09,1.22-.25,1.81-.02.06,0,.13.04.18.04.04.09.07.15.07,0,0,.02,0,.02,0,.79-.1,1.84-.57,2.34-2.22l.06-.37c.13-.73.26-1.48.35-2.23,0-.06.04-.11.1-.14.29-.16.69-.33.92-.33.08,0,.26.03.26.33,0,.25-.12.81-.27,1.52-.21.97-.47,2.17-.59,3.31-.01.1.06.19.16.21.01,0,.02,0,.04,0,.09,0,.17-.06.19-.15.17-.63.36-1.21.56-1.73.82-2.09,1.92-3.35,3.11-3.54.56.1,1.14.44,1.56.95.04.04.05.1.04.15-.09.41-.17.81-.26,1.2-.19.86-.38,1.67-.48,2.5-.01.1.05.2.16.22.01,0,.03,0,.04,0,.09,0,.17-.06.19-.15.14-.52.28-.95.4-1.3.57-1.64,1.67-3.45,3.07-3.6.66.11,1.25.45,1.65,1,.03.04.04.09.03.14-.07.39-.17.8-.27,1.22-.24.99-.48,2.01-.48,3.07,0,1.49.43,2.5,1.08,2.5.46,0,1.35-.51,2.15-3.96.22-1.1.78-2.12,1.57-2.87.69-.67,1.58-1.08,2.32-1.08.85,0,1.4.56,1.4,1.42,0,.98-.67,1.7-1.24,2.14-1.05.81-2.34,1.16-2.71,1.24-.09.02-.16.11-.15.2.08,1.7,1.05,2.88,2.36,2.88s3.09-1.44,3.81-5.52c.08-.5.16-1,.26-1.52.01-.06,0-.12-.05-.16-.04-.04-.09-.07-.15-.07,0,0-.64.04-.64.04-.08,0-.16-.07-.17-.16,0-.05-.01-.11-.01-.17,0-.04,0-.08,0-.12.01-.09.08-.16.18-.16l.83-.03c.09,0,.17-.07.19-.16.08-.48.18-1.04.27-1.59.1-.57.19-1.08.26-1.51,0-.06.04-.11.09-.13.28-.15.72-.31.96-.31.17,0,.26.09.26.26,0,.21-.15.93-.38,2.01l-.23,1.1c-.01.06,0,.12.04.17.04.04.09.07.15.07,0,0,2.11-.15,2.17-.15.08,0,.16.06.17.15,0,.05.01.1.01.15,0,.07-.02.16-.04.24-.03.07-.09.12-.17.12l-2.35.11c-.09,0-.17.07-.18.16-.24,1.34-.5,2.88-.5,4.15,0,2.26.73,3.07,1.42,3.07.29,0,1.8-.22,2.76-4.62.2-1.94.6-4.06,1.09-5.84.39-1.37.84-2.69,1.24-3.62.01-.03.03-.05.05-.07.24-.19.86-.56,1.15-.56.06,0,.1.02.18.06.84.42,1.4,1.54,1.4,2.79,0,1.9-1.4,4.32-3.48,4.89-.07.02-.13.08-.14.16-.21,1.31-.39,3-.45,4.1,0,.1.07.19.17.2,0,0,.02,0,.03,0,.09,0,.17-.06.19-.15.13-.57.28-1.14.42-1.55.7-2.02,1.81-3.26,3.05-3.38.65.07,1.22.42,1.61,1.02.03.04.03.09.03.13-.06.33-.13.65-.2.98-.2.96-.42,1.95-.42,2.98,0,1.47.43,2.46,1.06,2.46,1.05,0,1.78-2.38,2.13-3.79.07-.45.15-.92.24-1.4.13-.73.26-1.45.36-2.21,0-.06.04-.11.09-.14.21-.12.63-.33.88-.33.13,0,.28.06.28.35,0,.25-.13.89-.28,1.55-.24,1.17-.53,2.61-.53,3.89s.38,2.06,1.02,2.06c.94,0,1.74-1.58,2.39-4.7l.08-.49c.12-.72.25-1.47.35-2.21,0-.06.04-.11.1-.14.29-.16.69-.33.92-.33.08,0,.26.03.26.33,0,.25-.12.81-.27,1.52-.21.96-.46,2.16-.59,3.31-.01.1.06.2.16.21.01,0,.02,0,.04,0,.09,0,.17-.06.19-.15.16-.63.35-1.21.56-1.74.6-1.52,1.63-3.36,3.17-3.56.63.11,1.22.46,1.6.99.03.04.04.09.03.15-.07.35-.16.71-.25,1.09-.27,1.1-.54,2.23-.54,3.38,0,1.41.42,2.32,1.06,2.32.48,0,1.42-.51,2.22-3.96.02-.1.07-.24.13-.38.25-.83.61-1.52,1.09-2.07.8-.94,1.94-1.47,3.13-1.47.76,0,1.44.2,2.08.6.06.04.1.12.08.19-.44,2.11-.67,3.98-.9,6.03-.34,2.88-.72,4.4-1.42,5.6-.27.47-1.28,1.99-2.87,1.99Zm2.5-13.75c-.65,0-1.25.24-1.69.69-.6.81-1.02,2.39-1.02,3.78,0,1.54.49,2.65,1.16,2.65.8,0,1.5-1.59,1.85-2.54.41-1.11.77-2.46,1.06-4.03.01-.08-.02-.16-.09-.2-.35-.23-.81-.36-1.27-.36Zm-57.67.02c-.65,0-.94.76-.94,1.51,0,1.35.98,2.61,2.33,3,.02,0,.04,0,.05,0,.04,0,.07,0,.1-.03.05-.03.08-.08.09-.13.06-.33.09-.67.09-1.04,0-1.74-.82-3.32-1.73-3.32Zm22.18-.04c-.41,0-1.01.2-1.55,1.18-.39.65-.64,1.43-.71,2.24,0,.06.02.12.06.16.04.03.08.05.13.05.01,0,.03,0,.04,0,1.43-.3,2.87-1.23,2.87-2.61,0-.65-.31-1.02-.85-1.02Zm12.31-6.47c-.07.02-.12.06-.14.13-.69,2.06-1.22,4.14-1.49,5.86-.01.07.02.14.07.18.04.03.08.04.12.04.02,0,.05,0,.07-.01,1.55-.59,2.39-2.43,2.39-3.85,0-.92-.31-1.78-.84-2.29-.04-.04-.09-.06-.14-.06-.02,0-.03,0-.05,0Z"/><path class="cls-1" d="m29.46,15.34c-1.22,0-1.74-1.35-1.82-2.61,0-.09-.07-.17-.16-.18-.01,0-.02,0-.03,0-.08,0-.15.05-.18.12-.72,1.78-1.54,2.65-2.53,2.65s-1.78-.92-1.98-2.33c-.01-.08-.07-.15-.16-.17-.01,0-.03,0-.04,0-.07,0-.13.04-.17.1-.89,1.55-2.09,2.4-3.36,2.4-1.56,0-3.23-1.25-3.23-3.58,0-1.44.63-2.88,1.67-3.87.69-.67,1.58-1.08,2.32-1.08.85,0,1.4.56,1.4,1.42,0,.98-.67,1.7-1.24,2.14-1.05.81-2.34,1.16-2.71,1.24-.09.02-.16.11-.15.2.08,1.7,1.05,2.88,2.35,2.88,1.06,0,2.51-.99,3.39-3.76.03-.08.05-.15.08-.21.25-.98.69-1.85,1.25-2.5.78-.9,1.86-1.4,3.05-1.4.73,0,1.38.18,2.05.56.07.04.1.12.09.2-.37,1.72-.58,3.44-.58,4.61,0,1.59.37,2.54,1,2.54.56,0,1.64-.73,2.51-5.62l.25-1.45c.01-.06,0-.12-.05-.16-.04-.04-.09-.07-.15-.07,0,0-.64.04-.64.04-.08,0-.16-.07-.17-.16,0-.05-.01-.11-.01-.17,0-.04,0-.08,0-.12.01-.09.08-.16.18-.16l.84-.03c.09,0,.17-.07.19-.16.08-.46.17-1,.26-1.54l-.02.02c.06-.18.13-.61.29-1.58,0-.06.04-.1.09-.13.28-.15.72-.31.96-.31.17,0,.25.09.25.26,0,.21-.15.93-.38,2.01l-.23,1.1c-.01.06,0,.12.04.17.04.04.09.07.15.07,0,0,2.11-.15,2.17-.15.08,0,.16.06.17.15,0,.05.01.1.01.15,0,.07-.02.16-.04.24-.03.07-.09.12-.17.12l-2.35.11c-.09,0-.17.07-.18.16-.24,1.34-.5,2.88-.5,4.15,0,2.26.73,3.07,1.42,3.07.33,0,2-.26,2.94-5.49.02-.09.09-.15.18-.15.07,0,.13.04.16.08.03.04.06.09.05.14-.88,4.98-2.47,6.03-3.65,6.03s-1.98-.89-2.24-2.37c-.02-.09-.09-.15-.17-.16,0,0-.01,0-.02,0-.08,0-.15.05-.18.13-.61,1.63-1.36,2.43-2.27,2.43Zm-2.79-7.85c-.65,0-1.24.24-1.71.69-.59.9-.98,2.47-.98,3.85,0,1.58.45,2.6,1.16,2.6.78,0,1.42-1.34,1.81-2.46.36-.99.78-2.54,1.13-4.13.02-.08-.02-.17-.09-.21-.38-.22-.84-.34-1.31-.34Zm-7.3-.04c-.41,0-1.01.2-1.55,1.18-.39.66-.64,1.43-.71,2.24,0,.06.02.12.06.16.04.03.08.05.13.05.01,0,.03,0,.04,0,1.43-.3,2.87-1.23,2.87-2.61,0-.65-.31-1.02-.85-1.02Z"/><path class="cls-1" d="m53.43,21.16c-1.7,0-3.09-1.33-3.09-2.97,0-.92.44-1.85,1.21-2.55.03-.03.08-.05.12-.05.06,0,.1.02.14.06.06.07.06.18,0,.25-.38.4-.59.99-.59,1.66,0,1.54,1.19,2.75,2.71,2.75,1.04,0,1.96-.61,2.58-1.71.59-1.02.85-2.36,1.06-4.07.17-1.3.24-2.35.33-3.47l.08-1.08c0-.1-.06-.19-.15-.21-.01,0-.03,0-.04,0-.08,0-.15.05-.18.13-.94,2.51-2.17,3.79-3.67,3.79-2.27,0-2.87-2.71-2.87-4.31,0-1.39.41-3.69.81-5.35l.09-.35c.3-1.2.56-2.31.56-2.58,0-.15-.07-.39-.57-.39-.7,0-1.96.46-3.01,1.34-1.22,1.02-1.89,2.36-1.89,3.8s.67,2.96,2.18,3.37c.09.02.15.11.13.2s-.09.16-.18.16h-.11c-1.69,0-3.07-1.53-3.07-3.42,0-1.58,1.02-3.43,2.54-4.6,1.15-.88,2.69-1.45,4.11-1.51.44.1.89.35,1.27.75.04.05.06.11.05.17l-.25.96c-.24.9-.48,1.81-.65,2.6-.3,1.31-.65,3.31-.65,4.62,0,1.73.51,3.76,1.97,3.76,1.86,0,2.91-3.31,3.54-5.8.52-2.02.94-4.27,1.32-6.41.01-.06.04-.1.09-.13.45-.24.85-.39,1.08-.39.18,0,.29.06.29.33,0,.16-.08.5-.2,1.05l-.14.61c-.36,1.75-.64,3.62-.83,4.88-.2,1.44-.3,2.48-.39,3.48-.1,1.04-.18,1.99-.37,3.23-.38,2.35-.78,3.96-1.69,5.25-.96,1.35-2.33,2.16-3.68,2.16Z"/><path class="cls-1" d="m63.39,15.34c-1.7,0-2.89-1.44-2.89-3.5,0-1.66.75-3.18,1.95-3.97.03-.02.06-.03.1-.03.05,0,.11.02.14.06.06.07.06.18,0,.24-.67.72-.97,2.15-.97,3.18,0,1.94.92,3.34,2.18,3.34.85,0,1.61-.67,2.03-1.8.02-.05.02-.11,0-.16-.02-.05-.07-.09-.12-.1-1.58-.43-2.68-1.86-2.68-3.49,0-1.39.8-2.4,1.91-2.4s2.24,1.04,2.24,3.32c0,.6-.09,1.21-.25,1.81-.02.06,0,.13.04.18.04.04.09.07.15.07,0,0,.02,0,.02,0,.84-.11,1.94-.63,2.41-2.47.09-.57.13-1.02.13-1.44,0-.35-.03-.62-.09-.82-.02-.08,0-.16.07-.21.33-.22.61-.35.79-.35.31,0,.49.41.49,1.1,0,.6-.15,1.36-.31,2.16-.18.9-.36,1.84-.36,2.66,0,1.16.4,1.89,1.04,1.89.78,0,1.51-1.07,2.18-3.17.39-1.19.76-2.8.97-4.2,0-.06.04-.11.09-.13.27-.15.64-.31.87-.31.18,0,.28.13.28.37,0,.28-.15,1.09-.28,1.8-.3,1.52-.45,2.66-.45,3.49,0,1.36.39,2.2,1.02,2.2.86,0,1.62-1.4,2.25-4.16l.09-.65c.14-.99.28-1.93.32-2.6,0-.06.04-.12.1-.15.21-.11.64-.3.89-.3.08,0,.26.04.26.37,0,.37-.12.92-.26,1.62-.1.46-.2.95-.29,1.48-.02.1.05.2.15.22.02,0,.03,0,.05,0,.08,0,.16-.05.19-.14l.07-.23c.69-2.17,1.64-3.36,2.67-3.36.66,0,1.12.45,1.12,1.1,0,.42-.24.72-.67.86-.02,0-.04,0-.06,0-.04,0-.06,0-.08-.02-.04-.02-.08-.06-.09-.11-.11-.38-.38-.6-.73-.6-.66,0-1.25.79-1.77,2.36-.44,1.28-.81,2.99-.99,4.56,0,.06-.05.12-.1.14-.19.09-.47.19-.64.19-.32,0-.51-.23-.53-1.38,0-.09-.06-.17-.15-.19-.02,0-.03,0-.05,0-.07,0-.14.04-.17.1-.71,1.33-1.44,1.49-1.93,1.49-1.45,0-1.71-1.56-1.75-2.49,0-.09-.07-.17-.16-.19-.01,0-.02,0-.04,0-.08,0-.15.05-.18.12-.73,1.76-1.54,2.57-2.58,2.57-1.29,0-1.87-1.25-1.87-2.5,0-.24.02-.48.05-.73.01-.08-.03-.16-.1-.2-.03-.01-.06-.02-.09-.02-.05,0-.1.02-.13.05-.7.64-1.5.8-2.06.82-.08,0-.14.05-.17.12-.53,1.2-1.66,2.48-3.26,2.48Zm1.18-7.85c-.65,0-.94.76-.94,1.51,0,1.35.98,2.61,2.33,3,.02,0,.04,0,.05,0,.04,0,.07,0,.1-.03.05-.03.08-.08.09-.13.06-.33.09-.67.09-1.04,0-1.74-.82-3.32-1.73-3.32Z"/><path class="cls-1" d="m85.49,15.32c-.81,0-1.69-.36-1.69-1.16,0-.45.25-.76.68-.84.11,0,.14.03.16.04.04.04.06.1.06.15,0,.05,0,.1,0,.15,0,.69.43,1.1,1.16,1.1.77,0,1.57-.49,1.57-1.3,0-.69-.58-1.19-1.53-1.95l-.34-.27c-.86-.67-1.49-1.16-1.49-2.07,0-1.54,1.86-2.4,3.15-2.4,1.15,0,1.93.62,1.93,1.53,0,.49-.26.82-.73.91-.11,0-.13-.02-.15-.03-.04-.03-.07-.08-.07-.14-.05-1.13-.55-1.71-1.49-1.71s-1.67.57-1.67,1.28c0,.59.5,1.09,1.71,2.05l.32.25c.82.65,1.37,1.07,1.37,1.93,0,1.5-1.74,2.46-2.93,2.46Z"/><path class="cls-1" d="m102.32,21.22c-.95,0-1.44-.89-1.44-2.65,0-.93.12-2.44.38-4.61.01-.09-.04-.18-.13-.21-.02,0-.04,0-.06,0-.07,0-.13.04-.17.1-.57.99-1.26,1.49-2.04,1.49-1.24,0-2.09-1.1-2.28-2.94,0-.09-.07-.16-.16-.17-.01,0-.02,0-.03,0-.07,0-.14.04-.18.11-.91,1.91-2.26,3.01-3.71,3.01-1.56,0-3.23-1.25-3.23-3.58,0-1.44.63-2.88,1.67-3.87.69-.67,1.58-1.08,2.32-1.08.85,0,1.4.56,1.4,1.42,0,.98-.67,1.7-1.24,2.14-1.05.81-2.34,1.16-2.71,1.24-.09.02-.16.11-.15.2.08,1.7,1.05,2.88,2.35,2.88s3.11-1.46,3.82-5.58c.2-1.45.55-3.14.98-4.77.42-1.52.82-2.73,1.22-3.7.01-.03.03-.05.05-.07.33-.27.9-.56,1.11-.56.04,0,.12.01.24.1.71.44,1.2,1.75,1.2,3.21,0,2.31-1.34,5.21-3.52,5.87-.07.02-.13.09-.14.17-.09.82-.14,1.54-.14,2.15,0,2.02.56,3.22,1.49,3.22s1.82-1.59,2.43-4.27c.02-.1-.03-.2-.13-.23-.23-.08-.46-.14-.7-.19-.07-.01-.13-.07-.15-.15,0-.04-.01-.08-.02-.12-.01-.1.05-.18.15-.2.31-.06.61-.12.92-.19.08-.02.13-.08.15-.16.5-3.07.97-6.22,1.31-8.66,0-.05.04-.1.08-.13.23-.16.74-.38.99-.38.06,0,.26.02.26.33,0,.37-.31,2.05-.64,3.82l-.06.35c-.15.83-.31,1.78-.46,2.71-.08.5-.16.99-.24,1.44-.01.07.01.14.06.18.04.03.08.05.13.05.02,0,.04,0,.06,0,.71-.22,1.47-.51,2.4-.91,0,0,.06-.01.08-.01.06,0,.12.04.15.1.04.07.06.14.08.21.02.09-.02.18-.1.22-.85.37-2.25.83-2.88,1.03-.07.02-.13.09-.14.16l-.02.19c-.01.08.03.16.1.2,1.98,1.04,2.4,3.12,2.4,4.68s-.39,3.38-1,4.6c-.33.69-1.04,1.85-2.12,1.85Zm.64-10.17s-.05,0-.07.01c-.07.03-.12.09-.13.16-.29,2.28-.64,5.62-.64,7.52,0,.89.08,1.79.67,1.79.4,0,.77-.38,1.12-1.16.48-1.07.81-2.66.81-3.97,0-1.82-.58-3.35-1.63-4.3-.04-.03-.08-.05-.13-.05Zm-10.12-3.6c-.41,0-1.01.2-1.55,1.18-.39.66-.64,1.43-.71,2.24,0,.06.02.12.06.16.04.03.08.05.13.05.01,0,.03,0,.04,0,1.43-.3,2.87-1.23,2.87-2.61,0-.65-.31-1.02-.85-1.02Zm6.99-6.3c-.07.01-.13.06-.15.13-.4,1.21-.63,2.08-.86,2.94-.32,1.27-.62,2.8-.82,4.19-.01.07.02.14.08.19.03.03.08.04.12.04.03,0,.06,0,.08-.02,1.69-.78,2.45-2.98,2.45-4.83,0-.61-.09-1.76-.71-2.57-.04-.05-.1-.08-.16-.08-.01,0-.02,0-.03,0Z"/><path class="cls-1" d="m123.43,15.34c-1.34,0-2.37-.86-2.73-2.31-.02-.08-.09-.14-.17-.15,0,0-.01,0-.02,0-.08,0-.15.04-.18.12-.68,1.52-1.58,2.32-2.6,2.32-1.13,0-2.34-.91-2.34-3.48,0-1.17.25-2.66.53-4.2.01-.06,0-.12-.05-.16-.04-.04-.09-.07-.15-.07,0,0-.64.04-.64.04-.08,0-.16-.07-.17-.16,0-.05-.01-.11-.01-.17,0-.04,0-.08,0-.12.01-.09.09-.16.18-.16l.84-.03c.09,0,.17-.07.19-.16.08-.46.17-1,.26-1.53.11-.65.2-1.15.27-1.57,0-.06.04-.1.09-.13.28-.15.72-.31.96-.31.17,0,.26.09.26.26,0,.21-.15.93-.38,2.01-.08.39-.16.75-.23,1.1-.01.06,0,.12.04.17.04.04.09.07.15.07,0,0,2.11-.15,2.17-.15.08,0,.16.06.17.15,0,.05.01.1.01.15,0,.07-.02.16-.04.24-.03.07-.09.12-.17.12l-2.35.11c-.09,0-.17.07-.18.16-.24,1.34-.5,2.88-.5,4.15,0,2.26.73,3.07,1.42,3.07.38,0,1.69-.29,2.63-4.06.28-1.21.92-2.2,1.82-2.79.03-.02.06-.03.1-.03.05,0,.11.02.14.06.06.07.06.18,0,.24-.67.72-.97,2.16-.97,3.18,0,1.94.92,3.34,2.18,3.34.85,0,1.61-.67,2.03-1.8.02-.05.02-.11,0-.16-.02-.05-.07-.09-.12-.1-1.58-.43-2.68-1.86-2.68-3.49,0-1.39.8-2.4,1.91-2.4s2.24,1.04,2.24,3.32c0,.61-.09,1.22-.25,1.81-.02.06,0,.13.04.18.04.04.09.07.15.07,0,0,.02,0,.03,0,.76-.1,2.1-.61,2.51-2.89.02-.09.09-.15.18-.15.07.01.14.04.17.08.04.05.06.1.05.14-.46,2.92-2.27,3.42-3.31,3.45-.07,0-.14.05-.17.12-.53,1.2-1.66,2.48-3.26,2.48Zm1.18-7.85c-.65,0-.94.76-.94,1.51,0,1.35.98,2.61,2.33,3,.02,0,.04,0,.05,0,.04,0,.07,0,.1-.03.05-.03.08-.08.09-.13.06-.33.09-.67.09-1.04,0-1.74-.82-3.32-1.73-3.32Z"/><path class="cls-1" d="m189.98,4.74c-.49,0-.89-.41-.89-.9s.39-.9.89-.9.9.41.9.9-.41.9-.9.9Z"/><path class="cls-1" d="m217.66,15.4c-1.9,0-3.91-1.17-3.91-3.34,0-1.12.58-2.19,1.48-2.72.03-.02.06-.03.09-.03.06,0,.11.03.15.08.06.08.05.18-.03.25-.47.42-.73,1.06-.73,1.8,0,1.79,1.53,3.24,3.42,3.24,1.61,0,3.28-1.12,3.28-2.99,0-1.69-1.4-2.67-2.87-3.71l-.1-.07c-1.48-1.04-2.87-2.02-2.87-3.91,0-2.43,2.35-3.93,4.52-3.93,1.63,0,3.28.85,3.28,2.48,0,.74-.34,1.37-.97,1.77-.03.02-.06.03-.1.03-.05,0-.1-.02-.14-.06-.06-.07-.06-.17,0-.24.2-.25.3-.58.3-.97,0-1.33-1.19-2.34-2.77-2.34-1.46,0-3.01.9-3.01,2.58s1.54,2.72,2.77,3.58l.07.05c1.43,1.01,2.92,2.05,2.92,4.08,0,2.62-2.48,4.39-4.8,4.39Z"/><path class="cls-1" d="m8.34,15.34c-.55,0-2.34-.27-2.34-3.78,0-1.63.4-3.95,1.06-6.19.43-1.43.9-2.66,1.44-3.78.03-.05.03-.12,0-.17-.03-.05-.08-.09-.14-.1-.87-.17-1.99-.36-2.93-.36C2.71.94.88,2.48.88,4.76c0,1.57.85,2.67,2.15,2.8.09,0,.17.09.17.18,0,.09-.07.17-.16.18-.12.01-.23.02-.35.02-1.51,0-2.69-1.28-2.69-2.91C0,2.61,2.54.02,6.31.02c1.09,0,2.48.22,3.83.43,1.18.18,2.29.36,3.04.36.68,0,1.09-.15,1.42-.51.03-.04.08-.06.14-.06.04,0,.07.01.1.03.08.05.12.15.09.23-.38,1.06-1.01,1.45-2.29,1.45-.92,0-2.14-.22-2.97-.38-.01,0-.03,0-.04,0-.08,0-.15.05-.18.12-.55,1.39-.92,2.51-1.22,3.72-.53,2.16-.87,4.51-.87,6.14,0,2.86.96,3.17,1.38,3.17.81,0,1.58-1.07,2.17-3.03.07-.55.15-1.14.23-1.7l.02-.12c.14-.99.27-1.91.32-2.58,0-.07.04-.12.1-.15.21-.11.64-.3.89-.3.08,0,.26.04.26.37,0,.36-.12.92-.26,1.61-.09.43-.19.93-.29,1.47-.02.1.05.2.15.22.02,0,.03,0,.05,0,.08,0,.16-.05.19-.14l.07-.23c.69-2.17,1.64-3.36,2.67-3.36.66,0,1.12.45,1.12,1.1,0,.42-.24.72-.67.86-.02,0-.04,0-.06,0-.04,0-.06,0-.08-.02-.04-.02-.08-.06-.09-.11-.11-.38-.38-.6-.73-.6-.66,0-1.25.79-1.77,2.36-.44,1.28-.81,2.99-.99,4.56,0,.06-.05.12-.1.14-.19.09-.47.19-.64.19-.25,0-.49-.09-.53-1.21,0-.09-.06-.16-.14-.18-.02,0-.03,0-.05,0-.07,0-.13.03-.17.09-.57.91-1.26,1.37-2.05,1.37Z"/><path class="cls-1" d="m137.97,15.4c-1.9,0-3.91-1.17-3.91-3.34,0-1.12.58-2.19,1.48-2.72.03-.02.06-.03.09-.03.06,0,.11.03.15.08.06.08.05.18-.03.25-.47.42-.73,1.06-.73,1.8,0,1.79,1.53,3.24,3.42,3.24,1.61,0,3.28-1.12,3.28-2.99,0-1.69-1.4-2.67-2.87-3.71l-.1-.07c-1.48-1.04-2.87-2.02-2.87-3.91,0-2.43,2.35-3.93,4.52-3.93,1.63,0,3.28.85,3.28,2.48,0,.74-.34,1.37-.97,1.77-.03.02-.06.03-.1.03-.05,0-.1-.02-.14-.06-.06-.07-.06-.17,0-.24.2-.25.3-.58.3-.97,0-1.33-1.19-2.34-2.77-2.34-1.46,0-3.01.9-3.01,2.58s1.54,2.72,2.77,3.58l.07.05c1.43,1.01,2.92,2.05,2.92,4.08,0,2.62-2.48,4.39-4.8,4.39Z"/></g></g></svg>