<?xml version="1.0" encoding="UTF-8"?><svg id="_レイヤー_2" data-name="レイヤー 2" xmlns="http://www.w3.org/2000/svg" viewBox="0 0 47.56 41.6"><defs><style>.cls-1 {
        fill: #fff;
        stroke-width: 0px;
      }</style></defs><g id="_レイヤー_1-2" data-name="レイヤー 1"><g><path class="cls-1" d="m1.73,4.72c0-.52.02-1.59.03-2.18.02-.54.02-1.78,0-2.37h.72c0,.6-.03,1.79-.06,2.32-.02.57-.03,1.64-.03,2.17,0,1.12.34,1.61,1.17,1.61s1.95-.6,2.62-1.67l.34.69c-.7.94-1.85,1.62-2.95,1.62-1.35,0-1.85-.81-1.85-2.19ZM4.38.93l.43-.2c.28.39.51.88.69,1.36l-.45.21c-.18-.51-.43-1-.66-1.38Zm.91-.31l.45-.21c.27.4.51.87.7,1.37l-.46.21c-.18-.5-.42-1-.69-1.37Z"/><path class="cls-1" d="m10.43,5.41c.52-.45,1.09-1.06,1.61-1.91l.37.54c-.46.75-1.01,1.38-1.53,1.85l-.45-.48Zm1.91.94l-.02-.69c.39.33.9.57,1.42.57s.8-.27.8-.76c0-.44-.17-.78-.67-1.32-.62-.68-.81-1.07-.81-1.56,0-.54.47-1.03,1.12-1.24-.5-.22-1.22-.48-1.84-.69l.23-.59c.92.31,2.02.72,2.72,1.13l-.28.55c-.21-.06-.56-.02-.82.11-.32.15-.54.41-.54.72,0,.35.15.65.71,1.24.61.62.85,1.1.85,1.67,0,.88-.57,1.33-1.4,1.33-.47,0-1.06-.15-1.48-.5Zm3.13-2.97l.43-.4c.7.64,1.27,1.31,1.8,2.25l-.56.38c-.45-.9-1-1.61-1.67-2.23Zm.11-2.63l.43-.21c.26.4.46.82.65,1.3l-.45.21c-.19-.49-.4-.92-.64-1.3Zm.88-.32l.44-.21c.25.39.47.8.66,1.28l-.44.21c-.17-.45-.4-.9-.66-1.29Z"/><path class="cls-1" d="m21.2,6.59c1.11-2.31,2.06-4.4,3.01-6.59l.65.27c-.56,1.14-1.17,2.41-1.72,3.61.58-.58,1.14-.76,1.46-.76.61,0,.78.48.78,1.54,0,1.16.26,1.48.74,1.48.75,0,1.32-.91,1.76-2.3l.52.51c-.52,1.42-1.17,2.43-2.3,2.43-.88,0-1.36-.58-1.36-1.92,0-.78-.07-1.05-.4-1.05-.38,0-.99.52-1.37,1.01-.41.52-.6.89-1.15,2.13l-.63-.34Z"/><path class="cls-1" d="m32.33,4.17c0-.87.15-2.21.45-3.85l.66.11c-.33,1.61-.47,3.05-.47,3.75,0,.4.02.81.11,1.17.13-.48.37-1.11.55-1.45l.4.39c-.23.45-.39.9-.46,1.21-.1.4-.16.75-.12,1.13l-.52.21c-.4-.86-.58-1.68-.58-2.68Zm2.41.97c0-.33.15-.77.52-1.19l.61.21c-.34.29-.49.64-.49.88,0,.5.37.75,1.48.75.35,0,.92-.04,1.42-.16l.14.67c-.54.09-1.11.12-1.48.12-1.51,0-2.21-.41-2.21-1.28Zm.14-3.95c.92.02,2.29-.05,3.26-.21l.09.64c-1.05.15-2.35.22-3.29.21l-.06-.64Z"/><path class="cls-1" d="m2.01,20.46l-1.73.69-.28-.62,1.77-.65c-.28-.69-.59-1.4-.87-1.92l.62-.26c.23.48.57,1.25.86,1.95l.5-.18c.99-.35,1.9-.67,2.57-.67.93,0,1.65.59,1.65,1.53,0,1.06-.94,1.63-2.02,1.63-.27,0-.57-.03-.74-.08l-.18-.68c.23.09.59.13.84.13.74,0,1.42-.35,1.42-1.05,0-.52-.39-.89-1.03-.89-.52,0-1.34.27-2.29.64-.16.06-.32.13-.49.19.5,1.28.94,2.54,1.37,4.01l-.65.21c-.5-1.9-1.08-3.36-1.31-3.97Zm.85-2.65l.27-.52c.69.2,1.21.39,1.85.76l-.32.55c-.65-.39-1.13-.58-1.8-.79Z"/><path class="cls-1" d="m11.07,19.13c1.02-.02,1.97-.08,2.88-.18-.24-.53-.45-1.09-.59-1.66l.66-.14c.1.54.3,1.13.57,1.72.79-.11,1.53-.26,2.22-.44l.15.62c-.64.16-1.34.29-2.08.4.48.89,1.08,1.71,1.65,2.15l-.42.54c-.27-.22-.57-.36-.94-.47-.46-.15-.84-.2-1.3-.2-.97,0-1.6.47-1.6.98,0,.82,1.08,1.03,2.23,1.03.46,0,.94-.03,1.37-.08l.06.61c-.38.05-1.03.08-1.5.08-1.61,0-2.82-.47-2.82-1.61,0-.88.94-1.56,2.26-1.56.45,0,.96.08,1.49.28-.41-.49-.79-1.06-1.12-1.66-1.01.12-2.07.2-3.09.24l-.08-.64Z"/><path class="cls-1" d="m21.84,21.88c0-.52.02-1.59.03-2.18.02-.54.02-1.78,0-2.37h.72c0,.6-.03,1.79-.06,2.32-.02.57-.03,1.64-.03,2.17,0,1.12.34,1.61,1.17,1.61s1.95-.6,2.62-1.67l.34.69c-.69.94-1.85,1.62-2.95,1.62-1.35,0-1.85-.81-1.85-2.19Z"/><path class="cls-1" d="m31.68,21.73c-.68-.46-.87-.63-.87-.97s.27-.55.88-1.05c.94-.75,1.8-1.52,2.55-2.47l.57.42c-.82.97-1.52,1.55-2.54,2.36-.53.42-.72.59-.72.73,0,.16.11.27.82.72,1.06.67,1.79,1.19,2.89,2.28l-.51.51c-1.01-1.06-1.86-1.72-3.08-2.53Z"/><path class="cls-1" d="m40.08,22.82l.57-.5c.47.4.99.99,1.48,1.68l-.63.54c-.41-.64-.88-1.21-1.42-1.72Z"/><path class="cls-1" d="m1.49,36.44H0v-.57h1.48v-1.58h.65v1.58h2.9v-1.58h.65v1.58h1.48v.57h-1.48v5.1h-.65v-.64h-2.9v.64h-.65v-5.1Zm3.55,1.61v-1.61h-2.9v1.61h2.9Zm0,2.27v-1.73h-2.9v1.73h2.9Z"/><path class="cls-1" d="m12.3,37.62l-1.73.69-.28-.62,1.77-.65c-.27-.69-.59-1.4-.87-1.92l.62-.26c.23.48.57,1.25.86,1.95l.5-.18c.99-.35,1.9-.67,2.57-.67.93,0,1.65.59,1.65,1.53,0,1.06-.94,1.63-2.02,1.63-.27,0-.57-.03-.74-.08l-.18-.68c.23.09.59.13.84.13.74,0,1.42-.35,1.42-1.05,0-.52-.39-.89-1.03-.89-.52,0-1.34.27-2.29.64-.16.06-.32.13-.49.19.5,1.28.94,2.54,1.37,4.01l-.65.21c-.5-1.9-1.08-3.36-1.31-3.97Zm.85-2.65l.27-.52c.69.2,1.21.39,1.85.76l-.32.55c-.65-.4-1.13-.58-1.8-.79Z"/><path class="cls-1" d="m21.24,40.77c.72-1.34,1.19-2.58,1.57-3.93-.53.07-1.05.15-1.46.21l-.11-.62c.52-.05,1.3-.15,1.71-.2.15-.65.29-1.3.4-1.91l.65.1c-.11.57-.25,1.13-.4,1.72.28-.03.53-.06.72-.06.78,0,1.32.49,1.32,1.48,0,.73-.06,1.64-.28,2.41-.21.78-.64,1.04-1.17,1.04-.35,0-.78-.09-1.12-.22l-.05-.72c.34.17.77.29,1.07.29.36,0,.57-.21.71-.84.12-.51.2-1.16.2-1.87s-.29-.97-.76-.97c-.18,0-.46.03-.8.08-.42,1.57-.91,2.93-1.61,4.33l-.6-.32Zm4.91-4.94l.54-.37c.59.85,1.01,1.87,1.34,3.13l-.62.34c-.31-1.3-.66-2.28-1.26-3.11Z"/><path class="cls-1" d="m34.22,39.58c0-.57.31-1.21,1.25-1.76-1.17.15-2.59.33-3.69.48l-.09-.63c.31-.02.69-.05,1.12-.09,1.09-.66,2.34-1.62,3.08-2.28-.92.15-1.84.21-2.49.24l-.1-.62c.9,0,1.89-.05,3.19-.27l.52.41c-.68.7-1.99,1.66-3.15,2.4,1.59-.17,3.43-.4,4.49-.58l.11.64c-.6,0-1.25.06-1.76.22-.92.32-1.84.98-1.85,1.8,0,.79.9,1.24,2.26,1.3l-.21.63c-1.47-.11-2.68-.79-2.68-1.93Z"/><path class="cls-1" d="m44.16,41.07c.98-.35,1.5-.7,1.94-1.17.41-.44.75-1.11.75-1.84,0-.87-.57-1.24-1.21-1.24-.33,0-.6.05-1.27.23-.61.16-.99.27-1.49.4l-.19-.62c.5-.12.87-.21,1.42-.35.78-.2,1.18-.28,1.61-.28.94,0,1.84.57,1.84,1.79,0,1.06-.46,1.81-.89,2.29-.49.53-1.17.96-1.96,1.25l-.55-.48Zm-.21-6.23l.23-.57c.82.15,1.61.33,2.49.74l-.28.59c-.8-.4-1.61-.61-2.44-.76Z"/></g></g></svg>