<?xml version="1.0" encoding="UTF-8"?><svg id="_レイヤー_2" data-name="レイヤー 2" xmlns="http://www.w3.org/2000/svg" xmlns:xlink="http://www.w3.org/1999/xlink" viewBox="0 0 62.91 46.93"><defs><style>.cls-1, .cls-2, .cls-3 {
        fill: none;
      }

      .cls-4 {
        fill: #fff;
      }

      .cls-2 {
        stroke: #fff;
        stroke-miterlimit: 10;
        stroke-width: .85px;
      }

      .cls-3 {
        clip-path: url(#clippath);
      }</style><clipPath id="clippath"><rect class="cls-1" y="0" width="62.91" height="46.93"/></clipPath></defs><g id="_レイヤー_1-2" data-name="レイヤー 1"><g class="cls-3"><path class="cls-4" d="m47.45,7.04c1.55-1.61,2.14-3.2,2.57-5.37l.92.28c.13.04.25.09.25.16,0,.12-.26.18-.35.2-.51,1.96-1.13,3.59-2.55,5.18l-.83-.46Zm6.35-5.26c1.21,1.34,2.14,3.02,2.67,4.93l-.92.38c-.52-1.84-1.18-3.48-2.5-4.88l.75-.43Z"/><path class="cls-4" d="m51,14.38c.29.44.56.9.73,1.4l-.58.23c-.18-.48-.45-.96-.74-1.39l.59-.24Zm.71,4.57c.53-.17,1.12-.37,1.59-.68.51-.34.97-.76,1.34-1.23.72-.92.91-2,1.1-3.09l.53.18c.27.09.33.11.33.18,0,.09-.15.12-.22.14-.25,1.08-.6,2.03-1.28,2.94-.8,1.06-1.53,1.5-2.78,2.05l-.61-.49Zm1.33-5.03c.29.44.56.9.74,1.39l-.59.24c-.17-.47-.45-.97-.74-1.39l.59-.24Z"/><polygon class="cls-4" points="48.73 31.54 48.73 30.8 54.69 30.8 54.69 26.9 48.73 26.9 48.73 26.17 55.53 26.17 55.53 32.02 54.69 32.02 54.69 31.54 48.73 31.54"/><path class="cls-4" d="m51.74,36.87l.84.08c.12,0,.3.02.3.12,0,.08-.19.2-.28.25v1.43h2.09c.14,0,.42-.15.52-.22l.64.65c-.18.16-.27.28-.3.38-.52,3.06-1.34,4.75-4.01,5.77l-.64-.66c2.44-.73,3.48-2.3,3.82-5.26h-5.1v2.43h-.89v-3.09h3.01v-1.88Z"/><path class="cls-4" d="m24.01,2.47v-.68h7.55c.11,0,.31-.12.39-.17l.61.53c-.82,1.22-1.76,2.43-2.93,3.39l-.58-.5c.97-.83,1.76-1.71,2.28-2.56h-7.33Zm.92,5.57c.97-.49,1.73-1.16,2.21-2.26.39-.88.46-1.88.47-2.9l.93.16c.06,0,.17.04.17.12s-.14.15-.25.19c-.1,1.24-.27,2.43-.98,3.57-.45.72-1.02,1.19-1.81,1.68l-.75-.55Z"/><path class="cls-4" d="m32.43,15.77c-1.64,1.77-4.37,3.1-7.02,3.74-.05.14-.11.26-.19.26-.1,0-.16-.15-.2-.24l-.36-.8c2.6-.32,5.72-1.82,7.4-3.7l.38.74Zm-5.6-.78c-.52-.6-1.15-1.19-1.78-1.68l.61-.55c.63.49,1.35,1.11,1.86,1.7l-.69.53Z"/><polygon class="cls-4" points="24.77 31.05 24.77 30.31 30.73 30.31 30.73 26.42 24.77 26.42 24.77 25.69 31.57 25.69 31.57 31.54 30.73 31.54 30.73 31.05 24.77 31.05"/><path class="cls-4" d="m8.44,2.94v.69h-2.14c-.05,1.05-.11,2.01-.59,2.98-.53,1.07-1.33,1.57-2.29,1.92l-.75-.55c1.05-.3,1.79-.68,2.31-1.67.46-.88.49-1.74.53-2.68h-2.37v2.37h-.8v-2.37H0v-.69h2.34V.92l.87.09c.1,0,.19.03.19.11,0,.07-.05.12-.26.19v1.63h2.34c0-.73-.02-1.47-.05-2.2l.79.06c.19,0,.3.03.3.13,0,.09-.09.14-.22.2v1.81h2.14Z"/><path class="cls-4" d="m8.47,16.35c-1.64,1.77-4.38,3.1-7.02,3.74-.05.14-.11.26-.19.26-.1,0-.16-.15-.2-.24l-.36-.8c2.6-.32,5.72-1.82,7.4-3.7l.38.74Zm-5.6-.78c-.52-.6-1.14-1.19-1.77-1.68l.61-.55c.63.49,1.35,1.11,1.86,1.7l-.69.53Z"/><path class="cls-4" d="m4.18,27.88c1.38.56,2.23,1.01,3.42,1.88l-.54.68c-1.02-.82-2.03-1.41-3.28-1.89v4.32h-.87v-7.59l.84.06c.11,0,.28.02.28.13,0,.06-.11.14-.26.22v2.78l.4-.58Zm2.75-.88c-.28-.3-.68-.69-1.03-.93l.5-.44c.35.24.75.63,1.03.94l-.5.43Zm1.28-.63c-.26-.32-.69-.71-1.03-.96l.5-.41c.36.25.76.62,1.06.94l-.53.43Z"/><line class="cls-2" x1="62.48" y1="0" x2="62.48" y2="46.93"/><line class="cls-2" x1="37.2" y1="36.83" x2="37.2"/><line class="cls-2" x1="12.52" y1="0" x2="12.52" y2="37.05"/></g></g></svg>