<?xml version="1.0" encoding="UTF-8"?><svg id="_レイヤー_2" data-name="レイヤー 2" xmlns="http://www.w3.org/2000/svg" viewBox="0 0 240.66 11.37"><defs><style>.cls-1 {
        fill: #cfa34a;
        stroke-width: 0px;
      }</style></defs><g id="_編集モード" data-name="編集モード"><g><g><g><path class="cls-1" d="m234.2,11.34c-3.64,0-6.48-2.5-6.48-5.4,0-3.09,2.97-5.49,6.38-5.49,2.25,0,4.25.92,5.44,2.37V0h1.12v6.18h-.02c-.18,2.91-3.04,5.17-6.44,5.17Zm-.03-1.01c2.77,0,5.26-1.85,5.26-4.45s-2.64-4.42-5.26-4.42-5.21,1.82-5.21,4.48c0,2.56,2.54,4.39,5.21,4.39Z"/><path class="cls-1" d="m199.8,11.34c2.19,0,4.17-.94,5.34-2.38v1.69h1.19V.79h-1.19v2.04c-1.18-1.45-3.19-2.37-5.44-2.37-3.41,0-6.38,2.4-6.38,5.49,0,2.9,2.83,5.4,6.48,5.4Zm-.03-9.88c2.62,0,5.26,1.79,5.26,4.42s-2.49,4.45-5.26,4.45-5.21-1.83-5.21-4.39,2.6-4.48,5.21-4.48Z"/><path class="cls-1" d="m212.84.79v2.79c.97-1.97,3.22-3,5.47-3s5.79.95,5.79,5.48h0s0,4.7,0,4.7h-1.19v-4.69c0-3.03-1.86-4.45-4.61-4.45-2.94,0-5.47,2.49-5.47,5.64v3.49h-1.19V.79h1.19Z"/></g><path class="cls-1" d="m1.19,10.87H0V.45h1.19v4.73h9.69V.45h1.19v10.42h-1.19v-4.56H1.19v4.56Zm21.79.48c2.19,0,4.17-.94,5.34-2.38v1.69h1.19V.79h-1.19v2.04c-1.18-1.45-3.19-2.37-5.44-2.37-3.41,0-6.38,2.4-6.38,5.49,0,2.9,2.83,5.4,6.48,5.4Zm-.03-9.88c2.62,0,5.26,1.79,5.26,4.42s-2.49,4.45-5.26,4.45-5.21-1.83-5.21-4.39,2.6-4.48,5.21-4.48Zm19.05,3.94l5.7,5.24h-1.8l-4.74-4.48-4.98,4.48h-1.19V.52h1.19v8.5L45.46.79h1.67l-5.14,4.62Zm16.56,0l5.7,5.24h-1.8l-4.74-4.48-4.98,4.48h-1.19V.52h1.19v8.5L62.02.79h1.67l-5.14,4.62Zm15.07,5.93c3.51,0,6.46-2.4,6.46-5.44s-2.97-5.44-6.56-5.44-6.38,2.4-6.38,5.49c0,2.9,2.83,5.4,6.48,5.4Zm-.03-9.88c2.62,0,5.26,1.79,5.26,4.42s-2.49,4.45-5.26,4.45-5.21-1.83-5.21-4.39,2.6-4.48,5.21-4.48Z"/><path class="cls-1" d="m102.4,11.34c2.19,0,4.17-.94,5.34-2.38v1.69h1.19V.79h-1.19v2.04c-1.18-1.45-3.19-2.37-5.44-2.37-3.41,0-6.38,2.4-6.38,5.49,0,2.9,2.83,5.4,6.48,5.4Zm-.03-9.88c2.62,0,5.26,1.79,5.26,4.42s-2.49,4.45-5.26,4.45-5.21-1.83-5.21-4.39,2.6-4.48,5.21-4.48Zm51.57,9.88c-3.64,0-6.48-2.5-6.48-5.4,0-3.09,2.97-5.49,6.38-5.49,3.59,0,6.56,2.35,6.56,5.44,0,3.05-2.95,5.44-6.46,5.44Zm-.03-1.01c2.77,0,5.26-1.85,5.26-4.45,0-2.63-2.64-4.42-5.26-4.42s-5.21,1.82-5.21,4.48c0,2.56,2.54,4.39,5.21,4.39ZM115.33.79v2.69c.97-1.97,3.22-3,5.47-3s5.79.95,5.79,5.48h0s0,4.7,0,4.7h-1.19v-4.69c0-3.03-1.86-4.45-4.61-4.45-2.94,0-5.47,2.49-5.47,5.64v3.49h-1.19V.79h1.19Zm23.49,4.62l5.7,5.24h-1.68l-4.86-4.48-4.98,4.48h-1.19V.52h1.19v8.5l9.29-8.24h1.67l-5.14,4.62Z"/></g><path class="cls-1" d="m177.14,10.38c.75.25,3.25,1,6.11,1,1.48,0,5.97,0,6.17-2.72.05-.67-.13-1.24-.54-1.71h0c-.81-.93-2.45-1.41-5.64-1.62h-.05c-1.86-.13-4.07-.39-4.8-1.23-.2-.23-.28-.51-.26-.86.1-1.35,2.78-1.63,5.01-1.63,2.37,0,4.76.57,5.74.83v-1.21c-1.17-.3-3.44-.79-5.74-.79-1.48,0-5.97,0-6.17,2.72-.05.67.13,1.24.54,1.71.81.93,2.45,1.41,5.64,1.62h.08s0,0,0,0c1.85.13,4.04.39,4.77,1.22.2.23.28.51.26.86-.1,1.35-2.78,1.63-5.01,1.63-2.51,0-4.98-.64-6.11-1.03v1.2Z"/></g></g></svg>