<?xml version="1.0" encoding="UTF-8"?><svg id="_レイヤー_2" data-name="レイヤー 2" xmlns="http://www.w3.org/2000/svg" viewBox="0 0 58.52 68.37"><defs><style>.cls-1 {
        fill: #c4a25c;
      }</style></defs><g id="_レイヤー_1-2" data-name="レイヤー 1"><g><path class="cls-1" d="m58.52,20.42v-.37c0-6.77-2.98-12.46-8.38-16.03C44.45.28,38.18,0,29.26,0h-.42c-8.41,0-14.8.3-20.45,4.03C2.98,7.6,0,13.29,0,20.06v.34c.06,3.41.87,6.53,2.37,9.24-1.55,2.8-2.37,6.05-2.37,9.6v.34c.1,6.62,3.08,12.19,8.39,15.68,5.69,3.75,11.96,4.03,20.87,4.03h.05c8.61,0,15.15-.29,20.82-4.03,5.3-3.49,8.27-9.05,8.38-15.66v-.37c0-3.54-.81-6.79-2.37-9.59,1.5-2.7,2.31-5.82,2.37-9.22Zm-.51,18.81v.36c-.11,6.43-3.01,11.84-8.16,15.24-5.57,3.67-11.75,3.94-20.54,3.95h-.05c-8.82,0-15.02-.27-20.59-3.95C3.51,51.43.62,46.01.52,39.57v-.34c0-3.34.74-6.4,2.16-9.07,1.4,2.33,3.32,4.34,5.72,5.92,5.69,3.75,11.96,4.03,20.87,4.03h.05c8.61,0,15.15-.29,20.82-4.03,2.4-1.58,4.32-3.58,5.72-5.92,1.42,2.67,2.16,5.73,2.16,9.07Zm-8.16-3.58c-5.57,3.67-11.75,3.94-20.54,3.95h-.05c-8.82,0-15.02-.27-20.59-3.95-2.42-1.59-4.34-3.63-5.71-6.01,1.37-2.37,3.29-4.41,5.71-6,5.54-3.65,11.85-3.94,20.17-3.95h.42c8.82,0,15.02.27,20.59,3.95,2.42,1.6,4.34,3.63,5.71,6-1.37,2.38-3.29,4.42-5.71,6.01Zm.28-12.44c-5.69-3.75-11.96-4.03-20.87-4.03h-.42c-8.41,0-14.8.3-20.45,4.03-2.4,1.58-4.32,3.58-5.71,5.91-1.37-2.57-2.11-5.52-2.16-8.73v-.34c0-6.59,2.89-12.13,8.15-15.6C14.21.81,20.52.52,28.84.51h.42c8.82,0,15.02.27,20.59,3.95,5.26,3.47,8.16,9.01,8.16,15.6v.36c-.06,3.19-.8,6.13-2.16,8.7-1.4-2.33-3.32-4.33-5.72-5.91Z"/><path class="cls-1" d="m43.72,47.17c-.52-.54-1.31-.86-2.16-.86-1.48,0-2.68,1.04-2.68,2.32s1.22,2.28,2.72,2.28c1.42,0,2.6-.93,2.7-2.13h.01v-2.66h-.59v1.05Zm-.05,1.43c0,.97-.94,1.76-2.09,1.76-1.28,0-2.07-.9-2.07-1.73,0-1.09,1.07-1.77,2.07-1.77,1.29,0,2.09.9,2.09,1.74Z"/><path class="cls-1" d="m17.31,48.3h-.02c-.69-.05-1.63-.15-1.92-.48-.07-.08-.1-.18-.09-.31.03-.39.73-.61,1.98-.61.97,0,1.96.24,2.33.34l.08.02v-.63h-.05c-.47-.14-1.41-.34-2.37-.34-.62,0-2.51,0-2.6,1.18-.02.29.06.54.24.75.34.39,1.01.59,2.29.68h0s.1,0,.1,0c.68.05,1.62.15,1.91.48.07.08.1.18.09.31-.03.39-.73.61-1.98.61-.95,0-1.93-.23-2.48-.42l-.09-.03v.64l.05.02c.29.1,1.34.41,2.52.41.62,0,2.51,0,2.59-1.18.02-.29-.06-.54-.24-.75-.35-.4-1.03-.6-2.36-.69Z"/><path class="cls-1" d="m34.04,46.36c-.92,0-1.74.4-2.17,1.05v-.96h-.62v4.22h.62v-1.5c0-1.24.98-2.25,2.17-2.25s1.82.62,1.82,1.76v1.99h.62v-1.99c0-.54-.18-2.31-2.44-2.31Z"/><path class="cls-1" d="m45.62,9.62c-1.48-.13-2.76.8-2.87,2.07-.05.6.18,1.19.65,1.67.47.48,1.14.78,1.86.84.09,0,.19.01.28.01.61,0,1.2-.18,1.67-.51.56-.39.89-.94.95-1.56.11-1.28-1.01-2.4-2.54-2.53Zm1.91,2.47c-.04.48-.3.91-.73,1.2-.41.28-.96.42-1.5.37-.52-.05-1.03-.27-1.39-.61-.38-.36-.56-.82-.52-1.29.04-.49.31-.92.75-1.21.36-.24.81-.38,1.27-.38.07,0,.13,0,.2,0,1.28.11,2,1.08,1.93,1.92Z"/><path class="cls-1" d="m27.44,47.17c-.52-.54-1.31-.86-2.16-.86-1.48,0-2.68,1.04-2.68,2.32s1.22,2.28,2.72,2.28c.83,0,1.61-.32,2.12-.86v.58h.62v-4.18h-.62v.73Zm-.05,1.43c0,.97-.94,1.76-2.09,1.76-1.28,0-2.07-.9-2.07-1.73,0-1.09,1.07-1.77,2.07-1.77,1.29,0,2.09.9,2.09,1.74Z"/><polygon class="cls-1" points="36.57 27.95 35.68 27.95 31.97 31.24 31.97 27.84 31.35 27.84 31.35 32.13 31.93 32.13 33.94 30.32 35.89 32.11 35.91 32.13 36.8 32.13 34.39 29.91 36.57 27.95"/><polygon class="cls-1" points="40.58 9.29 39.7 9.25 35.84 12.38 35.99 8.98 35.37 8.95 35.18 13.24 35.76 13.26 37.85 11.54 39.69 13.43 40.63 13.48 38.32 11.16 40.58 9.29"/><polygon class="cls-1" points="15.26 9.31 15.43 11.24 11.61 11.58 11.44 9.65 10.82 9.7 11.2 14.09 11.82 14.03 11.66 12.17 15.48 11.84 15.64 13.7 16.26 13.64 15.88 9.26 15.26 9.31"/><polygon class="cls-1" points="32.64 9.04 31.76 9.04 28.04 12.33 28.04 8.92 27.42 8.92 27.42 13.21 28 13.21 30.01 11.4 31.91 13.19 31.93 13.21 32.87 13.21 30.46 11 32.64 9.04"/><path class="cls-1" d="m19.22,28.68c-.52-.54-1.31-.86-2.16-.86-1.48,0-2.68,1.04-2.68,2.32s1.22,2.28,2.72,2.28c.83,0,1.61-.32,2.12-.86v.58h.62v-4.18h-.62v.73Zm-.05,1.43c0,.97-.94,1.76-2.09,1.76-1.28,0-2.07-.9-2.07-1.73,0-1.09,1.07-1.77,2.07-1.77,1.29,0,2.09.91,2.09,1.74Z"/><path class="cls-1" d="m25.78,27.82c-.92,0-1.74.4-2.18,1.05v-.92h-.62v4.18h.62v-1.5c0-1.24.98-2.25,2.18-2.25s1.82.62,1.82,1.76v1.99h.62v-1.99c0-.54-.18-2.31-2.44-2.31Z"/><path class="cls-1" d="m41.44,27.82c-1.48,0-2.68,1.04-2.68,2.32s1.22,2.28,2.72,2.28,2.71-1.03,2.71-2.3-1.21-2.3-2.76-2.3Zm2.11,2.29c0,.97-.94,1.75-2.09,1.75-1.28,0-2.07-.9-2.07-1.73,0-1.09,1.07-1.77,2.07-1.77,1.29,0,2.09.91,2.09,1.74Z"/><path class="cls-1" d="m23.52,9.09l.03.73c-.54-.52-1.35-.81-2.2-.77-1.48.07-2.63,1.16-2.58,2.43.03.6.33,1.16.86,1.57.5.39,1.14.59,1.81.59.05,0,.1,0,.15,0,.83-.04,1.59-.39,2.08-.96l.03.58.62-.03-.18-4.17-.62.03Zm-2,.5c1.22,0,2.01.84,2.04,1.65.04.97-.86,1.79-2.01,1.84-.04,0-.08,0-.12,0-1.21,0-1.99-.84-2.02-1.64-.02-.49.19-.95.59-1.3.38-.33.89-.53,1.4-.56.04,0,.08,0,.12,0Z"/></g><g><path class="cls-1" d="m5,64.73c0,.25-.22.36-.45.36-.32,0-.48-.17-.52-.38h.15c.04.16.15.25.37.25.19,0,.3-.08.3-.22s-.11-.16-.35-.21c-.26-.06-.43-.12-.43-.34,0-.23.2-.35.44-.35.29,0,.43.14.48.32h-.15c-.05-.12-.15-.19-.33-.19s-.29.08-.29.22c0,.1.08.14.32.19.29.06.46.12.46.35Z"/><path class="cls-1" d="m6.62,64.46c0,.36-.27.63-.63.63s-.63-.27-.63-.63.28-.63.63-.63.63.27.63.63Zm-1.11,0c0,.28.21.49.48.49s.48-.21.48-.49-.21-.49-.48-.49-.48.21-.48.49Z"/><path class="cls-1" d="m8.2,63.85v1.22h-.14v-1.03l-.41.62h-.01l-.41-.62v1.03h-.14v-1.22h.18l.39.58.39-.58h.18Z"/><path class="cls-1" d="m8.86,63.99v.39h.59v.14h-.59v.42h.63v.14h-.77v-1.22h.77v.14h-.63Z"/><path class="cls-1" d="m11.47,64.73c0,.25-.22.36-.45.36-.32,0-.48-.17-.52-.38h.15c.04.16.15.25.37.25.19,0,.3-.08.3-.22s-.11-.16-.35-.21c-.26-.06-.43-.12-.43-.34,0-.23.2-.35.44-.35.29,0,.43.14.48.32h-.15c-.05-.12-.15-.19-.33-.19s-.29.08-.29.22c0,.1.08.14.32.19.29.06.46.12.46.35Z"/><path class="cls-1" d="m11.92,63.85h.14v1.22h-.14v-1.22Z"/><path class="cls-1" d="m13.7,63.85v1.22h-.14v-1.03l-.41.62h-.01l-.41-.62v1.03h-.14v-1.22h.18l.39.58.39-.58h.18Z"/><path class="cls-1" d="m15.12,64.24c0,.22-.15.4-.42.4h-.34v.43h-.14v-1.22h.49c.27,0,.42.17.42.39Zm-.15,0c0-.14-.09-.25-.28-.25h-.34v.51h.34c.19,0,.28-.12.28-.26Z"/><path class="cls-1" d="m16.28,64.94v.14h-.73v-1.22h.14v1.08h.59Z"/><path class="cls-1" d="m16.82,63.99v.39h.59v.14h-.59v.42h.63v.14h-.77v-1.22h.77v.14h-.63Z"/><path class="cls-1" d="m19.31,64.71h-.57l-.14.37h-.15l.49-1.22h.19l.49,1.22h-.15l-.14-.37Zm-.05-.14l-.23-.58-.23.58h.46Z"/><path class="cls-1" d="m21,63.85v1.22h-.18l-.69-1.03v.52s.01.51.01.51h-.14v-1.22h.18l.69,1.03v-.52s-.01-.51-.01-.51h.14Z"/><path class="cls-1" d="m22.54,64.46c0,.35-.27.61-.63.61h-.41v-1.22h.41c.36,0,.63.25.63.61Zm-.14,0c0-.28-.21-.47-.48-.47h-.27v.94h.27c.27,0,.48-.2.48-.47Z"/><path class="cls-1" d="m24.7,64.46c0,.35-.27.61-.63.61h-.41v-1.22h.41c.36,0,.63.25.63.61Zm-.14,0c0-.28-.21-.47-.48-.47h-.27v.94h.27c.27,0,.48-.2.48-.47Z"/><path class="cls-1" d="m25.3,63.99v.39h.59v.14h-.59v.42h.63v.14h-.77v-1.22h.77v.14h-.63Z"/><path class="cls-1" d="m27.09,64.94v.14h-.73v-1.22h.14v1.08h.59Z"/><path class="cls-1" d="m27.48,63.85h.14v1.22h-.14v-1.22Z"/><path class="cls-1" d="m28.08,64.46c0-.36.27-.63.63-.63.28,0,.49.16.58.41h-.15c-.07-.16-.23-.27-.42-.27-.28,0-.48.21-.48.49s.2.49.48.49c.2,0,.35-.11.42-.27h.15c-.08.25-.3.41-.58.41-.36,0-.63-.27-.63-.63Z"/><path class="cls-1" d="m30.44,64.71h-.57l-.14.37h-.15l.49-1.22h.19l.49,1.22h-.15l-.14-.37Zm-.05-.14l-.23-.58-.23.58h.46Z"/><path class="cls-1" d="m31.82,63.99h-.39v1.08h-.15v-1.08h-.39v-.14h.93v.14Z"/><path class="cls-1" d="m32.36,63.99v.39h.59v.14h-.59v.42h.63v.14h-.77v-1.22h.77v.14h-.63Z"/><path class="cls-1" d="m34.23,63.99v.4h.59v.14h-.59v.55h-.14v-1.22h.77v.14h-.63Z"/><path class="cls-1" d="m35.41,63.99v.39h.59v.14h-.59v.42h.63v.14h-.77v-1.22h.77v.14h-.63Z"/><path class="cls-1" d="m36.85,64.6h-.24v.47h-.14v-1.22h.48c.27,0,.41.16.41.38,0,.2-.12.34-.34.37l.39.48h-.18l-.38-.47Zm-.24-.13h.32c.19,0,.28-.1.28-.24s-.09-.24-.28-.24h-.32v.48Z"/><path class="cls-1" d="m38.95,63.85v1.22h-.14v-1.03l-.41.62h-.01l-.41-.62v1.03h-.14v-1.22h.18l.39.58.39-.58h.18Z"/><path class="cls-1" d="m39.6,63.99v.39h.59v.14h-.59v.42h.63v.14h-.77v-1.22h.77v.14h-.63Z"/><path class="cls-1" d="m41.66,63.85v1.22h-.18l-.69-1.03v.52s.01.51.01.51h-.14v-1.22h.18l.69,1.03v-.52s-.01-.51-.01-.51h.14Z"/><path class="cls-1" d="m42.98,63.99h-.39v1.08h-.15v-1.08h-.39v-.14h.93v.14Z"/><path class="cls-1" d="m43.52,63.99v.39h.59v.14h-.59v.42h.63v.14h-.77v-1.22h.77v.14h-.63Z"/><path class="cls-1" d="m45.62,64.46c0,.35-.27.61-.63.61h-.41v-1.22h.41c.36,0,.63.25.63.61Zm-.14,0c0-.28-.21-.47-.48-.47h-.27v.94h.27c.27,0,.48-.2.48-.47Z"/><path class="cls-1" d="m47.62,64.73c0,.25-.22.36-.45.36-.32,0-.48-.17-.52-.38h.15c.04.16.15.25.37.25.19,0,.3-.08.3-.22s-.11-.16-.35-.21c-.26-.06-.43-.12-.43-.34,0-.23.2-.35.44-.35.29,0,.43.14.48.32h-.15c-.05-.12-.15-.19-.33-.19s-.29.08-.29.22c0,.1.08.14.32.19.29.06.46.12.46.35Z"/><path class="cls-1" d="m49.55,63.85l-.34,1.22h-.18l-.12-.44-.15-.6h-.03l-.15.6-.12.44h-.18l-.34-1.22h.15l.16.58.12.49.12-.49.16-.58h.19l.16.58.12.49.12-.49.16-.58h.15Z"/><path class="cls-1" d="m50.09,63.99v.39h.59v.14h-.59v.42h.63v.14h-.77v-1.22h.77v.14h-.63Z"/><path class="cls-1" d="m51.3,63.99v.39h.59v.14h-.59v.42h.63v.14h-.77v-1.22h.77v.14h-.63Z"/><path class="cls-1" d="m53.21,63.99h-.39v1.08h-.15v-1.08h-.39v-.14h.93v.14Z"/><path class="cls-1" d="m54.49,64.73c0,.25-.22.36-.45.36-.32,0-.48-.17-.52-.38h.15c.04.16.15.25.37.25.19,0,.3-.08.3-.22s-.11-.16-.35-.21c-.26-.06-.43-.12-.43-.34,0-.23.2-.35.44-.35.29,0,.43.14.48.32h-.15c-.05-.12-.15-.19-.33-.19s-.29.08-.29.22c0,.1.08.14.32.19.29.06.46.12.46.35Z"/><path class="cls-1" d="m5.23,67.13v1.22h-.14v-1.03l-.41.62h-.01l-.41-.62v1.03h-.14v-1.22h.18l.39.58.39-.58h.18Z"/><path class="cls-1" d="m6.49,67.98h-.57l-.14.37h-.15l.49-1.22h.19l.49,1.22h-.15l-.14-.37Zm-.05-.14l-.23-.58-.23.58h.46Z"/><path class="cls-1" d="m8.22,67.74c0,.35-.27.61-.63.61h-.41v-1.22h.41c.36,0,.63.25.63.61Zm-.14,0c0-.28-.21-.47-.48-.47h-.27v.94h.27c.27,0,.48-.2.48-.47Z"/><path class="cls-1" d="m8.81,67.27v.39h.59v.14h-.59v.42h.63v.14h-.77v-1.22h.77v.14h-.63Z"/><path class="cls-1" d="m12.06,67.13l-.34,1.22h-.18l-.12-.44-.15-.6h-.03l-.15.6-.12.44h-.18l-.34-1.22h.15l.16.58.12.49.12-.49.16-.58h.19l.16.58.12.49.12-.49.16-.58h.15Z"/><path class="cls-1" d="m12.45,67.13h.14v1.22h-.14v-1.22Z"/><path class="cls-1" d="m13.92,67.27h-.39v1.08h-.15v-1.08h-.39v-.14h.93v.14Z"/><path class="cls-1" d="m15.31,67.13v1.22h-.14v-.56h-.71v.56h-.14v-1.22h.14v.52h.71v-.52h.14Z"/><path class="cls-1" d="m16.44,67.74c0-.36.27-.63.63-.63.28,0,.49.16.58.41h-.15c-.07-.16-.23-.27-.42-.27-.28,0-.48.21-.48.49s.2.49.48.49c.2,0,.35-.11.42-.27h.15c-.08.25-.3.41-.58.41-.36,0-.63-.27-.63-.63Z"/><path class="cls-1" d="m18.79,67.98h-.57l-.14.37h-.15l.49-1.22h.19l.49,1.22h-.15l-.14-.37Zm-.05-.14l-.23-.58-.23.58h.46Z"/><path class="cls-1" d="m19.87,67.88h-.24v.47h-.14v-1.22h.48c.27,0,.41.16.41.38,0,.2-.12.34-.34.37l.39.48h-.18l-.38-.47Zm-.24-.13h.32c.19,0,.28-.1.28-.24s-.09-.24-.28-.24h-.32v.48Z"/><path class="cls-1" d="m20.98,67.27v.39h.59v.14h-.59v.42h.63v.14h-.77v-1.22h.77v.14h-.63Z"/><path class="cls-1" d="m22.19,67.27v.4h.59v.14h-.59v.55h-.14v-1.22h.77v.14h-.63Z"/><path class="cls-1" d="m24.19,67.13v.74c0,.34-.21.5-.48.5s-.48-.16-.48-.5v-.74h.15v.73c0,.26.14.37.33.37s.33-.11.33-.37v-.73h.15Z"/><path class="cls-1" d="m25.42,68.21v.14h-.73v-1.22h.14v1.08h.59Z"/><path class="cls-1" d="m26.55,68.21v.14h-.73v-1.22h.14v1.08h.59Z"/><path class="cls-1" d="m27.27,67.91v.44h-.14v-.43l-.45-.79h.16l.36.62.36-.62h.17l-.45.78Z"/><path class="cls-1" d="m29.68,68.01c0,.25-.22.36-.45.36-.32,0-.48-.17-.52-.38h.15c.04.16.15.25.37.25.19,0,.3-.08.3-.22s-.11-.16-.35-.21c-.26-.06-.43-.12-.43-.34,0-.23.2-.35.44-.35.29,0,.43.14.48.32h-.15c-.05-.12-.15-.19-.33-.19s-.29.08-.29.22c0,.1.08.14.32.19.29.06.46.12.46.35Z"/><path class="cls-1" d="m30.27,67.27v.39h.59v.14h-.59v.42h.63v.14h-.77v-1.22h.77v.14h-.63Z"/><path class="cls-1" d="m32.06,68.21v.14h-.73v-1.22h.14v1.08h.59Z"/><path class="cls-1" d="m32.6,67.27v.39h.59v.14h-.59v.42h.63v.14h-.77v-1.22h.77v.14h-.63Z"/><path class="cls-1" d="m33.59,67.74c0-.36.27-.63.63-.63.28,0,.49.16.58.41h-.15c-.07-.16-.23-.27-.42-.27-.28,0-.48.21-.48.49s.2.49.48.49c.2,0,.35-.11.42-.27h.15c-.08.25-.3.41-.58.41-.36,0-.63-.27-.63-.63Z"/><path class="cls-1" d="m36.01,67.27h-.39v1.08h-.15v-1.08h-.39v-.14h.93v.14Z"/><path class="cls-1" d="m36.55,67.27v.39h.59v.14h-.59v.42h.63v.14h-.77v-1.22h.77v.14h-.63Z"/><path class="cls-1" d="m38.65,67.74c0,.35-.27.61-.63.61h-.41v-1.22h.41c.36,0,.63.25.63.61Zm-.14,0c0-.28-.21-.47-.48-.47h-.27v.94h.27c.27,0,.48-.2.48-.47Z"/><path class="cls-1" d="m39.77,67.13h.14v1.22h-.14v-1.22Z"/><path class="cls-1" d="m41.42,67.13v1.22h-.18l-.69-1.03v.52s.01.51.01.51h-.14v-1.22h.18l.69,1.03v-.52s-.01-.51-.01-.51h.14Z"/><path class="cls-1" d="m43.08,67.71v.63h-.13v-.29c-.06.19-.24.3-.47.3-.35,0-.62-.27-.62-.63s.27-.63.63-.63c.28,0,.49.16.58.4h-.15c-.07-.16-.23-.26-.42-.26-.28,0-.48.21-.48.49s.19.49.48.49c.24,0,.42-.15.44-.4h-.5v-.12h.65Z"/><path class="cls-1" d="m43.97,67.88h-.24v.47h-.14v-1.22h.48c.27,0,.41.16.41.38,0,.2-.12.34-.34.37l.39.48h-.18l-.38-.47Zm-.24-.13h.32c.19,0,.28-.1.28-.24s-.09-.24-.28-.24h-.32v.48Z"/><path class="cls-1" d="m45.08,67.27v.39h.59v.14h-.59v.42h.63v.14h-.77v-1.22h.77v.14h-.63Z"/><path class="cls-1" d="m47.18,67.74c0,.35-.27.61-.63.61h-.41v-1.22h.41c.36,0,.63.25.63.61Zm-.14,0c0-.28-.21-.47-.48-.47h-.27v.94h.27c.27,0,.48-.2.48-.47Z"/><path class="cls-1" d="m47.63,67.13h.14v1.22h-.14v-1.22Z"/><path class="cls-1" d="m48.43,67.27v.39h.59v.14h-.59v.42h.63v.14h-.77v-1.22h.77v.14h-.63Z"/><path class="cls-1" d="m50.49,67.13v1.22h-.18l-.69-1.03v.52s.01.51.01.51h-.14v-1.22h.18l.69,1.03v-.52s-.01-.51-.01-.51h.14Z"/><path class="cls-1" d="m51.81,67.27h-.39v1.08h-.15v-1.08h-.39v-.14h.93v.14Z"/><path class="cls-1" d="m53.09,68.01c0,.25-.22.36-.45.36-.32,0-.48-.17-.52-.38h.15c.04.16.15.25.37.25.19,0,.3-.08.3-.22s-.11-.16-.35-.21c-.26-.06-.43-.12-.43-.34,0-.23.2-.35.44-.35.29,0,.43.14.48.32h-.15c-.05-.12-.15-.19-.33-.19s-.29.08-.29.22c0,.1.08.14.32.19.29.06.46.12.46.35Z"/><path class="cls-1" d="m53.71,68.27c0,.06-.04.1-.1.1s-.1-.04-.1-.1.04-.1.1-.1.1.04.1.1Z"/></g></g></svg>