<?xml version="1.0" encoding="UTF-8"?><svg id="_レイヤー_2" data-name="レイヤー 2" xmlns="http://www.w3.org/2000/svg" viewBox="0 0 123.38 125.01"><defs><style>.cls-1 {
        fill: #fff;
      }</style></defs><g id="_デザイン" data-name="デザイン"><g><path class="cls-1" d="m61.8,84.43h-.1c-18.77,0-31.97-.59-43.93-8.47C6.62,68.61.36,56.91.15,43v-.72c0-14.23,6.25-26.18,17.61-33.67C29.66.78,43.1.16,60.81.14h.89c18.77,0,31.97.59,43.93,8.47,11.36,7.49,17.62,19.45,17.62,33.67v.77c-.24,13.88-6.49,25.57-17.62,32.9-11.93,7.86-25.69,8.47-43.82,8.47ZM60.81.94c-17.56.02-30.9.63-42.6,8.34C7.07,16.62.94,28.34.94,42.29v.71c.22,13.63,6.34,25.1,17.26,32.29,11.78,7.76,24.86,8.34,43.49,8.34h.1c18.56,0,31.61-.58,43.38-8.34,10.9-7.19,17.03-18.64,17.25-32.24v-.76c0-13.94-6.12-25.67-17.25-33C93.41,1.52,80.32.94,61.69.94h-.89Zm.99,123.93h-.1c-18.77,0-31.97-.59-43.93-8.47C6.62,109.05.36,97.35.15,83.44v-.72c0-14.23,6.25-26.18,17.61-33.67,11.89-7.84,25.34-8.46,43.04-8.47h.89c18.77,0,31.97.59,43.93,8.47,11.36,7.49,17.62,19.45,17.62,33.67v.77c-.24,13.88-6.49,25.57-17.62,32.9-11.93,7.86-25.69,8.47-43.82,8.47Zm-.99-83.49c-17.56.02-30.9.63-42.6,8.34C7.07,57.06.94,68.78.94,82.73v.71c.22,13.63,6.34,25.1,17.26,32.29,11.78,7.76,24.86,8.34,43.49,8.34h.1c18.56,0,31.61-.58,43.38-8.34,10.9-7.19,17.03-18.64,17.25-32.24v-.76c0-13.94-6.12-25.67-17.25-33-11.77-7.76-24.86-8.34-43.49-8.34h-.89Zm26.89,65.81c-3.15,0-5.6-2.16-5.6-4.67,0-2.67,2.56-4.74,5.51-4.74,1.94,0,3.68.8,4.7,2.05v-2.45h.97v5.34h-.01c-.15,2.52-2.63,4.46-5.57,4.46Zm-.03-.87c2.39,0,4.54-1.6,4.54-3.84s-2.28-3.82-4.54-3.82-4.5,1.57-4.5,3.87c0,2.21,2.19,3.79,4.5,3.79Zm-34.3.87c1.89,0,3.6-.81,4.61-2.06v1.46h1.03v-8.53h-1.03v1.77c-1.02-1.25-2.75-2.05-4.7-2.05-2.95,0-5.51,2.07-5.51,4.74,0,2.51,2.45,4.67,5.6,4.67Zm-.03-8.53c2.26,0,4.54,1.55,4.54,3.82s-2.15,3.84-4.54,3.84-4.5-1.58-4.5-3.79,2.25-3.87,4.5-3.87Zm12.67-.58v8.61s1.03,0,1.03,0v-3.01c0-2.72,2.19-4.88,4.73-4.88,2.37,0,3.98,1.22,3.98,3.84v4.05s1.03,0,1.03,0c0,0,0-4.05,0-4.05h0c0-3.92-2.98-4.74-5.01-4.74s-3.89.89-4.73,2.59v-2.41s-1.03,0-1.03,0Zm-34.8,8.28c.65.22,2.81.86,5.28.86,1.28,0,5.16,0,5.33-2.35.04-.58-.12-1.07-.47-1.48h0c-.7-.81-2.11-1.21-4.88-1.4h-.04c-1.61-.12-3.52-.34-4.14-1.06-.17-.2-.24-.44-.22-.75.08-1.17,2.4-1.41,4.32-1.41,2.05,0,4.11.49,4.96.72v-1.04c-1.01-.26-2.97-.69-4.96-.69-1.28,0-5.16,0-5.33,2.35-.04.58.12,1.07.47,1.48.7.81,2.11,1.21,4.88,1.4h.07s0,0,0,0c1.6.11,3.49.34,4.12,1.05.17.2.24.44.22.75-.08,1.17-2.4,1.41-4.32,1.41-2.17,0-4.31-.55-5.28-.89v1.04Zm4.83-38.15c1.89,0,3.6-.81,4.61-2.06v1.46h1.03v-8.53h-1.03v1.77c-1.02-1.25-2.75-2.05-4.7-2.05-2.95,0-5.51,2.07-5.51,4.74,0,2.51,2.45,4.67,5.6,4.67Zm-.03-8.53c2.26,0,4.54,1.55,4.54,3.82s-2.15,3.84-4.54,3.84-4.5-1.58-4.5-3.79,2.25-3.87,4.5-3.87Zm51.45,8.53c-3.15,0-5.6-2.16-5.6-4.67,0-2.67,2.56-4.74,5.51-4.74,3.1,0,5.67,2.03,5.67,4.7s-2.55,4.7-5.58,4.7Zm-.03-.87c2.39,0,4.54-1.6,4.54-3.84,0-2.27-2.28-3.82-4.54-3.82s-4.5,1.57-4.5,3.87c0,2.21,2.19,3.79,4.5,3.79Zm-37.81-8.25v2.32c.84-1.7,2.79-2.59,4.73-2.59s5,.82,5.01,4.74h0s0,4.06,0,4.06h-1.03v-4.05c0-2.62-1.61-3.84-3.98-3.84-2.54,0-4.73,2.15-4.73,4.88v3.01h-1.03v-8.53h1.03Zm22.67,4l4.93,4.53h-1.46l-4.2-3.87-4.3,3.87h-1.03v-8.76h1.03v7.35l8.03-7.12h1.44l-4.44,4ZM24.77,29.46l-1.02.09-.78-8.97,1.02-.09.36,4.07,8.34-.73-.36-4.07,1.02-.09.78,8.97-1.02.09-.34-3.92-8.34.73.34,3.92Zm20.76-.85c1.89-.08,3.56-.96,4.52-2.26l.06,1.46,1.02-.04-.37-8.52-1.02.04.08,1.76c-1.08-1.21-2.84-1.93-4.78-1.84-2.94.13-5.42,2.31-5.3,4.98.11,2.51,2.65,4.55,5.79,4.42Zm-.4-8.52c2.26-.1,4.61,1.35,4.7,3.62s-1.98,3.93-4.37,4.04-4.56-1.39-4.66-3.59,2.08-3.96,4.33-4.06Zm18.88,3.1l4.93,4.53h-1.56l-4.1-3.87-4.3,3.87h-1.03v-8.76h1.03v7.35l8.03-7.12h1.44l-4.44,4Zm16.57.33l4.72,4.74-1.56-.07-3.93-4.05-4.47,3.68-1.02-.04.22-5.09.04-.87.12-2.79,1.02.04-.18,4.06-.03.69-.11,2.59,8.33-6.76,1.44.06-4.61,3.8Zm14.86,6.28c3.02.26,5.74-1.58,5.97-4.2s-2.14-4.91-5.24-5.18c-2.94-.26-5.67,1.58-5.9,4.24-.22,2.5,2.03,4.86,5.17,5.14Zm.72-8.5c2.26.2,4.39,1.94,4.19,4.2-.2,2.24-2.48,3.64-4.86,3.43s-4.34-1.97-4.15-4.17,2.58-3.66,4.82-3.46Z"/><path class="cls-1" d="m61.8,125.01h-.1c-18.8,0-32.01-.59-44.01-8.5C6.5,109.14.22,97.4,0,83.45v-.72c0-7.47,1.72-14.32,4.99-20.23C1.83,56.78.12,50.19,0,43.01v-.72c0-14.27,6.27-26.28,17.68-33.79C29.61.63,43.08.02,60.81,0h.89c18.8,0,32.02.59,44.01,8.5,11.4,7.52,17.68,19.52,17.68,33.79v.77c-.12,7.16-1.84,13.74-5,19.44,3.28,5.91,5,12.76,5,20.23v.77c-.24,13.93-6.52,25.66-17.68,33.02-11.96,7.88-25.74,8.5-43.9,8.5ZM5.16,62.79c-3.2,5.83-4.88,12.58-4.88,19.94v.72c.22,13.85,6.45,25.52,17.56,32.84,11.93,7.86,25.11,8.45,43.85,8.45h.1c18.11,0,31.85-.61,43.75-8.45,11.09-7.31,17.32-18.95,17.55-32.79v-.77c0-7.36-1.67-14.1-4.87-19.94-.1.18-.2.35-.3.53,3.06,5.69,4.66,12.26,4.66,19.41v.76c-.23,13.66-6.38,25.15-17.32,32.36-11.8,7.78-24.87,8.36-43.46,8.37h-.1c-18.65,0-31.76-.58-43.57-8.37C7.17,108.63,1.02,97.12.81,83.44v-.71c0-7.15,1.6-13.71,4.66-19.41-.1-.17-.2-.35-.3-.53Zm.47.81c-2.98,5.62-4.55,12.09-4.55,19.12v.71c.21,13.58,6.32,25.01,17.2,32.18,11.74,7.74,24.81,8.32,43.41,8.32h.1c18.54,0,31.57-.58,43.31-8.32,10.86-7.16,16.97-18.57,17.19-32.13v-.76c0-7.04-1.56-13.5-4.55-19.12-2.94,4.92-7,9.14-12.05,12.47-11.96,7.88-25.74,8.5-43.9,8.5h-.1c-18.8,0-32.01-.59-44.01-8.5-5.05-3.33-9.11-7.56-12.05-12.47Zm.16-.29c2.93,4.94,6.98,9.19,12.05,12.53,11.93,7.86,25.11,8.45,43.85,8.45h.1c18.11,0,31.85-.61,43.75-8.45,5.07-3.34,9.12-7.58,12.05-12.53-.1-.18-.19-.35-.29-.53-2.9,4.99-6.95,9.27-12.04,12.62-11.8,7.78-24.87,8.36-43.46,8.37h-.1c-18.65,0-31.76-.58-43.57-8.37-5.09-3.35-9.14-7.63-12.04-12.62-.1.17-.2.35-.29.53Zm.45-.81c2.89,5.02,6.94,9.31,12.04,12.67,11.74,7.74,24.81,8.32,43.41,8.32h.1c18.54,0,31.57-.58,43.31-8.32,5.1-3.36,9.15-7.66,12.03-12.67-2.88-5-6.93-9.29-12.03-12.66-11.74-7.74-24.81-8.32-43.41-8.32h-.88c-17.54.02-30.85.62-42.53,8.32-5.1,3.36-9.15,7.65-12.04,12.66Zm-.92,0c.1.18.2.35.3.53.1-.18.19-.35.29-.53-.1-.17-.2-.35-.29-.53-.1.17-.2.35-.3.53Zm112.14,0c.1.17.2.35.29.53.1-.17.2-.35.3-.53-.1-.18-.2-.35-.3-.53-.1.18-.19.35-.29.53Zm-111.67-.81c.1.18.19.35.29.53,2.9-4.98,6.95-9.25,12.04-12.61,11.74-7.74,25.1-8.35,42.68-8.37h.88c18.65,0,31.76.58,43.57,8.37,5.09,3.36,9.14,7.63,12.04,12.61.1-.17.2-.35.29-.53-2.93-4.93-6.98-9.17-12.05-12.51-11.93-7.86-25.11-8.45-43.85-8.45h-.89c-17.68.02-31.1.63-42.97,8.45-5.07,3.34-9.12,7.58-12.05,12.51ZM60.81.28c-17.68.02-31.1.63-42.97,8.45C6.52,16.2.28,28.11.28,42.29v.71c.11,7.07,1.79,13.56,4.88,19.2.1-.18.2-.35.3-.53-2.95-5.5-4.55-11.82-4.66-18.68v-.71c0-14,6.15-25.76,17.32-33.12C29.86,1.43,43.22.82,60.81.8h.88c18.65,0,31.76.58,43.57,8.37,11.17,7.36,17.32,19.12,17.32,33.12v.76c-.12,6.84-1.72,13.14-4.67,18.63.1.17.2.35.3.53,3.08-5.63,4.75-12.1,4.87-19.15v-.77c0-14.17-6.23-26.09-17.55-33.55C93.62.87,80.44.28,61.69.28h-.89Zm0,.8c-17.54.02-30.85.62-42.53,8.32C7.19,16.71,1.08,28.39,1.08,42.29v.71c.11,6.75,1.67,12.97,4.55,18.4,2.94-4.91,6.99-9.12,12.05-12.46,11.93-7.86,25.4-8.48,43.12-8.5h.89c18.8,0,32.02.59,44.01,8.5,5.06,3.33,9.11,7.55,12.05,12.46,2.87-5.42,4.43-11.62,4.55-18.35v-.76c0-13.9-6.1-25.57-17.19-32.88C93.36,1.66,80.29,1.08,61.69,1.08h-.88Zm-24.32,106.27c-2.5,0-4.71-.67-5.32-.87l-.1-.03v-1.34l.19.07c1.16.41,3.22.88,5.23.88,2.64,0,4.12-.45,4.18-1.28.02-.27-.04-.47-.19-.64-.6-.69-2.58-.9-4.02-1h-.21s0-.02,0-.02c-2.71-.2-4.11-.62-4.83-1.44-.38-.44-.55-.97-.5-1.58.18-2.48,4.16-2.48,5.47-2.48,2.02,0,4,.43,5,.69l.11.03v1.34l-.18-.05c-.8-.21-2.87-.72-4.92-.72-2.64,0-4.12.45-4.18,1.28-.02.27.04.47.19.64.6.69,2.6.91,4.05,1.01h.05c2.8.19,4.24.62,4.97,1.46.38.43.55.97.5,1.58-.18,2.48-4.16,2.48-5.47,2.48Zm-5.13-1.11c.72.23,2.79.82,5.13.82,1.24,0,5.03,0,5.19-2.22.04-.54-.11-1-.43-1.38-.67-.78-2.06-1.17-4.78-1.35h-.05c-1.62-.12-3.57-.34-4.24-1.11-.2-.23-.28-.5-.26-.85.07-1.02,1.58-1.54,4.47-1.54,1.95,0,3.91.44,4.82.68v-.75c-1.02-.26-2.9-.65-4.82-.65-1.24,0-5.03,0-5.19,2.21-.04.54.11,1,.43,1.38.67.78,2.06,1.17,4.78,1.35l.28.02h0c1.57.12,3.37.36,4,1.09.2.23.28.5.26.85-.07,1.02-1.58,1.54-4.47,1.54-1.94,0-3.93-.44-5.13-.84v.74Zm56.35,1.08c-3.16,0-5.74-2.16-5.74-4.81s2.54-4.88,5.65-4.88c1.79,0,3.47.67,4.56,1.82v-2.21h1.25v5.6h-.02c-.22,2.53-2.7,4.49-5.7,4.49Zm-.09-9.41c-2.96,0-5.37,2.06-5.37,4.6s2.45,4.52,5.45,4.52,5.28-1.9,5.43-4.33v-.11s.01-5.08.01-5.08h-.69v2.7l-.25-.31c-1.02-1.25-2.74-2-4.59-2Zm-34.24,9.41c-3.16,0-5.74-2.16-5.74-4.81s2.54-4.88,5.65-4.88c1.79,0,3.47.67,4.56,1.82v-1.53h1.31v8.81h-1.31v-1.22c-1.09,1.15-2.73,1.82-4.47,1.82Zm-.09-9.41c-2.96,0-5.37,2.06-5.37,4.6s2.45,4.52,5.45,4.52c1.8,0,3.48-.75,4.5-2l.25-.31v1.72h.74v-8.24h-.74v2.02l-.25-.31c-1.02-1.25-2.74-2-4.59-2Zm23.62,8.9h-1.31v-4.19c0-2.39-1.36-3.7-3.84-3.7s-4.59,2.12-4.59,4.74v3.15h-1.31v-8.9h1.31v2.02c.91-1.36,2.65-2.21,4.59-2.21,4.77,0,5.15,3.73,5.15,4.88v4.2Zm-1.03-.28h.74v-3.91c0-4.15-3.4-4.6-4.86-4.6-2.04,0-3.85.99-4.6,2.51l-.27.54v-2.88h-.74v8.33h.74v-2.87c0-2.77,2.18-5.02,4.87-5.02s4.12,1.45,4.12,3.98v3.91Zm11.79-.09c-2.87,0-4.64-2.04-4.64-3.93,0-2.48,2.41-4.01,4.64-4.01s4.68,1.51,4.68,3.96c0,2.2-2.1,3.98-4.68,3.98Zm0-7.66c-2.1,0-4.36,1.42-4.36,3.73,0,1.76,1.67,3.65,4.36,3.65,2.43,0,4.4-1.66,4.4-3.7,0-1.77-1.68-3.68-4.4-3.68Zm-34.33,7.66c-2.87,0-4.64-2.04-4.64-3.93,0-2.48,2.41-4.01,4.64-4.01s4.68,1.51,4.68,3.96c0,2.2-2.1,3.98-4.68,3.98Zm0-7.66c-2.1,0-4.36,1.42-4.36,3.73,0,1.76,1.67,3.65,4.36,3.65,2.43,0,4.4-1.66,4.4-3.7,0-1.77-1.68-3.68-4.4-3.68Zm34.12-30.46c-3.16,0-5.74-2.16-5.74-4.81s2.54-4.88,5.65-4.88,5.81,2.13,5.81,4.84-2.57,4.85-5.72,4.85Zm-.09-9.41c-2.96,0-5.37,2.06-5.37,4.6s2.45,4.52,5.45,4.52,5.44-2.05,5.44-4.56-2.43-4.56-5.53-4.56Zm-51.33,9.41c-3.16,0-5.74-2.16-5.74-4.81s2.54-4.88,5.65-4.88c1.79,0,3.47.67,4.56,1.82v-1.53h1.31v8.81h-1.31v-1.22c-1.09,1.15-2.73,1.82-4.47,1.82Zm-.09-9.41c-2.96,0-5.37,2.06-5.37,4.6s2.45,4.52,5.45,4.52c1.8,0,3.48-.75,4.5-2l.25-.31v1.72h.74v-8.24h-.74v2.02l-.25-.31c-1.02-1.25-2.74-2-4.59-2Zm41.62,8.81h-1.87l-.04-.04-4.11-3.79-4.25,3.82h-1.22v-9.04h1.31v7.17l7.83-6.94h1.86l-4.6,4.14,5.08,4.67Zm-1.76-.28h1.04l-4.77-4.39,4.28-3.85h-1.02l-8.23,7.29v-7.52h-.74v8.47h.83l4.36-3.92.1.09,4.16,3.83Zm-16.32.28h-1.31v-4.19c0-2.39-1.36-3.7-3.84-3.7s-4.59,2.12-4.59,4.74v3.15h-1.31v-8.81h1.31v1.94c.91-1.36,2.65-2.21,4.59-2.21,4.77,0,5.15,3.73,5.15,4.88v4.2Zm-1.03-.28h.74v-3.91c0-4.15-3.4-4.6-4.86-4.6-2.04,0-3.85.99-4.6,2.51l-.27.54v-2.79h-.74v8.24h.74v-2.87c0-2.77,2.18-5.02,4.87-5.02s4.12,1.45,4.12,3.98v3.91Zm28.96,0c-2.87,0-4.64-2.04-4.64-3.93,0-2.48,2.41-4.01,4.64-4.01s4.68,1.51,4.68,3.96c0,2.2-2.1,3.98-4.68,3.98Zm0-7.66c-2.1,0-4.36,1.42-4.36,3.73,0,1.76,1.67,3.65,4.36,3.65,2.43,0,4.4-1.66,4.4-3.7,0-1.77-1.68-3.68-4.4-3.68Zm-51.42,7.66c-2.87,0-4.64-2.04-4.64-3.93,0-2.48,2.41-4.01,4.64-4.01s4.68,1.51,4.68,3.96c0,2.2-2.1,3.98-4.68,3.98Zm0-7.66c-2.1,0-4.36,1.42-4.36,3.73,0,1.76,1.67,3.65,4.36,3.65,2.43,0,4.4-1.66,4.4-3.7,0-1.77-1.68-3.68-4.4-3.68Zm60-29.84c-.2,0-.4,0-.6-.03-1.53-.13-2.93-.77-3.93-1.78-.99-1-1.48-2.25-1.37-3.51.23-2.68,2.94-4.64,6.06-4.37,3.25.28,5.6,2.63,5.37,5.33-.11,1.3-.82,2.47-2,3.29-1,.7-2.24,1.07-3.53,1.07Zm-.41-9.43c-2.71,0-4.99,1.77-5.2,4.14-.1,1.18.35,2.35,1.29,3.29.95.96,2.29,1.56,3.75,1.69h0c1.44.13,2.84-.23,3.94-.99,1.1-.77,1.77-1.86,1.88-3.08.22-2.55-2.02-4.76-5.11-5.03-.18-.02-.37-.02-.55-.02ZM23.62,29.7l-.81-9.25,1.3-.11.36,4.07,8.06-.71-.36-4.07,1.3-.11.81,9.25-1.3.11-.34-3.92-8.06.71.34,3.92-1.3.11Zm-.5-8.99l.76,8.69.74-.06-.34-3.92h.14s8.48-.75,8.48-.75l.34,3.92.74-.07-.76-8.69-.74.07.36,4.07h-.14s-8.48.75-8.48.75l-.36-4.07-.74.06Zm72.85,8.38c-.16,0-.33,0-.49-.02-1.16-.1-2.29-.6-3.1-1.37-.86-.82-1.28-1.87-1.19-2.95.1-1.11.7-2.09,1.71-2.77.93-.62,2.12-.92,3.27-.82,2.24.2,4.53,1.92,4.32,4.35-.1,1.1-.69,2.07-1.67,2.74-.81.55-1.81.84-2.85.84Zm-.24-7.67c-.95,0-1.9.28-2.67.79-.93.62-1.49,1.53-1.58,2.56-.09.99.3,1.96,1.1,2.72.76.73,1.83,1.2,2.92,1.3,1.13.1,2.28-.18,3.16-.77.91-.62,1.46-1.51,1.55-2.53.15-1.76-1.36-3.81-4.06-4.04h0c-.14-.01-.28-.02-.42-.02Zm-50.5,7.35c-1.43,0-2.77-.44-3.82-1.25-1.11-.87-1.76-2.04-1.81-3.31-.12-2.69,2.32-4.99,5.43-5.12,1.79-.09,3.49.52,4.63,1.62l-.07-1.53,1.31-.06.38,8.8-1.31.06-.05-1.22c-1.03,1.19-2.65,1.94-4.39,2.02-.1,0-.2,0-.31,0Zm.29-.29v.14s0-.14,0-.14c1.8-.08,3.45-.9,4.41-2.2l.24-.32.08,1.72.74-.03-.36-8.23-.74.03.09,2.02-.27-.3c-1.08-1.21-2.82-1.86-4.67-1.8-2.96.13-5.27,2.3-5.16,4.83.05,1.18.66,2.28,1.7,3.09,1.07.83,2.47,1.25,3.94,1.19Zm40.14-.06l-1.98-.09-3.87-3.99-4.41,3.63-1.22-.05.4-9.03,1.31.06-.31,7.17,8.13-6.59,1.86.08-4.77,3.93,4.87,4.89Zm-1.85-.36l1.14.05-4.58-4.59,4.44-3.66-1.02-.04-8.54,6.92.33-7.51-.74-.03-.37,8.47.83.04,4.53-3.73,3.98,4.1Zm-38.6-.16c-2.72,0-4.47-1.9-4.55-3.73-.05-1.11.42-2.17,1.33-2.97.84-.74,1.98-1.19,3.13-1.24h0c2.25-.09,4.75,1.31,4.85,3.75.1,2.19-1.93,4.07-4.51,4.18-.09,0-.17,0-.26,0Zm.17-7.67c-.08,0-.16,0-.25,0h0c-1.09.05-2.16.47-2.96,1.17-.84.74-1.28,1.71-1.24,2.74.07,1.7,1.72,3.46,4.27,3.46.08,0,.16,0,.25,0,2.42-.11,4.32-1.85,4.24-3.89-.07-1.71-1.73-3.49-4.31-3.49Zm23.92,7.63h-1.98l-.04-.04-4-3.78-4.25,3.82h-1.22v-9.04h1.31v7.18l7.83-6.94h1.86l-4.6,4.14,5.08,4.67Zm-1.87-.28h1.14l-4.77-4.39,4.28-3.85h-1.02l-8.23,7.29v-7.52h-.74v8.47h.83l4.36-3.92.09.09,4.06,3.83Z"/></g></g></svg>