<?xml version="1.0" encoding="UTF-8"?><svg id="_レイヤー_2" data-name="レイヤー 2" xmlns="http://www.w3.org/2000/svg" viewBox="0 0 123.38 125.01"><defs><style>.cls-1 {
        fill: #231815;
        stroke: #231815;
        stroke-miterlimit: 10;
        stroke-width: .28px;
      }</style></defs><g id="_レイヤー_1-2" data-name="レイヤー 1"><path id="top" class="cls-1" d="m61.8,84.43h-.1c-18.77,0-31.97-.59-43.93-8.47C6.62,68.61.36,56.91.15,43v-.72c0-14.23,6.25-26.18,17.61-33.67C29.66.78,43.11.16,60.81.14h.89c18.77,0,31.97.59,43.93,8.47,11.36,7.49,17.62,19.45,17.62,33.67v.77c-.24,13.88-6.49,25.57-17.62,32.9-11.93,7.86-25.69,8.47-43.82,8.47ZM60.81.94c-17.56.02-30.9.63-42.6,8.34C7.07,16.62.94,28.34.94,42.29v.71c.22,13.63,6.34,25.1,17.26,32.29,11.78,7.76,24.86,8.34,43.49,8.34h.1c18.56,0,31.61-.58,43.38-8.34,10.9-7.19,17.03-18.64,17.25-32.24v-.76c0-13.94-6.12-25.67-17.25-33C93.41,1.52,80.32.94,61.69.94h-.89Z"/><path id="bottom" class="cls-1" d="m61.8,124.87h-.1c-18.77,0-31.97-.59-43.93-8.47C6.62,109.05.36,97.35.15,83.45v-.72c0-14.23,6.25-26.18,17.61-33.67,11.89-7.84,25.34-8.46,43.04-8.47h.89c18.77,0,31.97.59,43.93,8.47,11.36,7.49,17.62,19.45,17.62,33.67v.77c-.24,13.88-6.49,25.57-17.62,32.9-11.93,7.86-25.69,8.47-43.82,8.47Zm-.99-83.49c-17.56.02-30.9.63-42.6,8.34C7.07,57.06.94,68.78.94,82.73v.71c.22,13.63,6.34,25.1,17.26,32.29,11.78,7.76,24.86,8.34,43.49,8.34h.1c18.56,0,31.61-.58,43.38-8.34,10.9-7.19,17.03-18.64,17.25-32.24v-.76c0-13.94-6.12-25.67-17.25-33-11.77-7.76-24.86-8.34-43.49-8.34h-.89Z"/><path id="sand" class="cls-1" d="m87.7,107.19c-3.15,0-5.6-2.16-5.6-4.67,0-2.67,2.56-4.74,5.51-4.74,1.94,0,3.68.8,4.7,2.05v-2.45h.97v5.34h-.01c-.15,2.52-2.63,4.46-5.57,4.46Zm-.03-.87c2.39,0,4.54-1.6,4.54-3.84s-2.28-3.82-4.54-3.82-4.5,1.57-4.5,3.87c0,2.21,2.19,3.79,4.5,3.79Zm-34.3.87c1.89,0,3.6-.81,4.61-2.06v1.46h1.03v-8.53h-1.03v1.77c-1.02-1.25-2.75-2.05-4.7-2.05-2.95,0-5.51,2.07-5.51,4.74,0,2.51,2.45,4.67,5.6,4.67Zm-.03-8.53c2.26,0,4.54,1.55,4.54,3.82s-2.15,3.84-4.54,3.84-4.5-1.58-4.5-3.79,2.25-3.87,4.5-3.87Zm12.67-.58v8.61s1.03,0,1.03,0v-3.01c0-2.72,2.19-4.88,4.73-4.88,2.37,0,3.98,1.22,3.98,3.84v4.05s1.03,0,1.03,0c0,0,0-4.05,0-4.05h0c0-3.92-2.98-4.74-5.01-4.74s-3.89.89-4.73,2.59v-2.41s-1.03,0-1.03,0Zm-34.8,8.28c.65.22,2.81.86,5.28.86,1.28,0,5.16,0,5.33-2.35.04-.58-.12-1.07-.47-1.48h0c-.7-.81-2.11-1.21-4.88-1.4h-.04c-1.61-.12-3.52-.34-4.14-1.06-.17-.2-.24-.44-.22-.75.08-1.17,2.4-1.41,4.32-1.41,2.05,0,4.11.49,4.96.72v-1.04c-1.01-.26-2.97-.69-4.96-.69-1.28,0-5.16,0-5.33,2.35-.04.58.12,1.07.47,1.48.7.81,2.11,1.21,4.88,1.4h.07s0,0,0,0c1.6.11,3.49.34,4.12,1.05.17.2.24.44.22.75-.08,1.17-2.4,1.41-4.32,1.41-2.17,0-4.31-.55-5.28-.89v1.04Z"/><path id="anko" class="cls-1" d="m36.04,68.2c1.89,0,3.6-.81,4.61-2.06v1.46h1.03v-8.53h-1.03v1.77c-1.02-1.25-2.75-2.05-4.7-2.05-2.95,0-5.51,2.07-5.51,4.74,0,2.51,2.45,4.67,5.6,4.67Zm-.03-8.53c2.26,0,4.54,1.55,4.54,3.82s-2.15,3.84-4.54,3.84-4.5-1.58-4.5-3.79,2.25-3.87,4.5-3.87Zm51.45,8.53c-3.15,0-5.6-2.16-5.6-4.67,0-2.67,2.56-4.74,5.51-4.74,3.1,0,5.67,2.03,5.67,4.7s-2.55,4.7-5.58,4.7Zm-.03-.87c2.39,0,4.54-1.6,4.54-3.84,0-2.27-2.28-3.82-4.54-3.82s-4.5,1.57-4.5,3.87c0,2.21,2.19,3.79,4.5,3.79Zm-37.81-8.25v2.32c.84-1.7,2.79-2.59,4.73-2.59s5,.82,5.01,4.74h0s0,4.06,0,4.06h-1.03v-4.05c0-2.62-1.61-3.84-3.98-3.84-2.54,0-4.73,2.15-4.73,4.88v3.01h-1.03v-8.53h1.03Zm22.67,4l4.93,4.53h-1.46l-4.2-3.87-4.3,3.87h-1.03v-8.76h1.03v7.35l8.03-7.12h1.44l-4.44,4Z"/><path id="hakko" class="cls-1" d="m24.77,29.46l-1.02.09-.78-8.97,1.02-.09.36,4.07,8.34-.73-.36-4.07,1.02-.09.78,8.97-1.02.09-.34-3.92-8.34.73.34,3.92Zm20.76-.85c1.89-.08,3.56-.96,4.52-2.26l.06,1.46,1.02-.04-.37-8.52-1.02.04.08,1.76c-1.08-1.21-2.84-1.93-4.78-1.84-2.94.13-5.42,2.31-5.3,4.98.11,2.51,2.65,4.55,5.79,4.42Zm-.4-8.52c2.26-.1,4.61,1.35,4.7,3.62.1,2.24-1.98,3.93-4.37,4.04-2.3.1-4.56-1.39-4.66-3.59s2.08-3.96,4.33-4.06Zm18.88,3.1l4.93,4.53h-1.56l-4.1-3.87-4.3,3.87h-1.03v-8.76h1.03v7.35l8.03-7.12h1.44l-4.44,4Zm16.57.33l4.72,4.74-1.56-.07-3.93-4.05-4.47,3.68-1.02-.04.22-5.09.04-.87.12-2.79,1.02.04-.18,4.06-.03.69-.11,2.59,8.33-6.76,1.44.06-4.61,3.8Zm14.86,6.28c3.02.26,5.74-1.58,5.97-4.2s-2.14-4.91-5.24-5.18c-2.94-.26-5.67,1.58-5.9,4.24-.22,2.5,2.03,4.86,5.17,5.14Zm.72-8.5c2.26.2,4.39,1.94,4.19,4.2-.2,2.24-2.48,3.64-4.86,3.43s-4.34-1.97-4.15-4.17,2.58-3.66,4.82-3.46Z"/></g></svg>