<?xml version="1.0" encoding="utf-8"?><!--Generator: Adobe Illustrator 27.7.0, SVG Export Plug-In . SVG Version: 6.00 Build 0)--><svg version="1.1" id="_レイヤー_2" xmlns="http://www.w3.org/2000/svg" xmlns:xlink="http://www.w3.org/1999/xlink" x="0px" y="0px" viewBox="0 0 72.6 49.7" style="enable-background:new 0 0 72.6 49.7" xml:space="preserve"><style type="text/css">.st0{fill:#C9A55C;}
	.st1{fill:#C3A15B;stroke:#C3A15B;stroke-width:0.2835;stroke-miterlimit:10;}</style><g id="_レイヤー_1-2"><g><path class="st0" d="M39.2,46.7v3h-0.3v-1.4h-1.8v1.4h-0.4v-3h0.3V48h1.8v-1.3H39.2z"/><path class="st0" d="M42.3,48.7l-1.4,0l-0.3,0.9h-0.4l1.1-3.1h0.5l1.3,3h-0.4L42.3,48.7L42.3,48.7z M42.1,48.4L41.5,47L41,48.4
			L42.1,48.4z"/><path class="st0" d="M45.7,49.5l-1.5-1.4l0.1,1.5l-0.4,0l-0.2-3l0.4,0l0.1,1.4l1.3-1.5l0.5,0L44.6,48l1.6,1.5L45.7,49.5L45.7,49.5
			z"/><path class="st0" d="M49,49.2l-1.6-1.3l0.2,1.5l-0.4,0l-0.3-3l0.4,0l0.2,1.4l1.2-1.6l0.5,0l-1.3,1.6l1.7,1.4L49,49.2L49,49.2z"/><path class="st0" d="M53.2,46.9c0.2,0.9-0.4,1.7-1.2,1.8c-0.9,0.2-1.7-0.4-1.8-1.2c-0.2-0.9,0.4-1.7,1.2-1.8
			C52.2,45.5,53,46.1,53.2,46.9z M50.5,47.5c0.1,0.7,0.8,1.1,1.4,1c0.7-0.1,1.1-0.7,1-1.4s-0.8-1.1-1.4-1
			C50.7,46.2,50.3,46.8,50.5,47.5z"/><path class="st0" d="M57.9,46l-1.3,0.5v1l-0.3,0.1v-3.3l0.4-0.2l2.2,2.4l-0.4,0.1L57.9,46L57.9,46z M57.6,45.8l-1.1-1.1v1.5
			L57.6,45.8z"/><path class="st0" d="M60.6,42.2l1.5,2.6L61.7,45L59,43.7l0.7,1.1l0.6,1.1L60,46.1l-1.5-2.6l0.4-0.2l2.8,1.3l-0.7-1.1l-0.6-1.1
			L60.6,42.2L60.6,42.2z"/><path class="st0" d="M64.7,42.9l-2-0.2l0.9,1.2L63.3,44l-1.9-2.4l0.3-0.2l0.9,1.1l0.2-2l0.4-0.3l-0.2,2.1l2.1,0.3L64.7,42.9
			L64.7,42.9z"/><path class="st0" d="M66.8,38.5c0.7,0.6,0.7,1.5,0.1,2.2c-0.6,0.7-1.5,0.7-2.2,0.1s-0.7-1.5-0.1-2.2
			C65.2,37.9,66.1,37.9,66.8,38.5L66.8,38.5z M65,40.5c0.5,0.5,1.3,0.4,1.7-0.1c0.4-0.5,0.4-1.2-0.1-1.7s-1.3-0.4-1.7,0.1
			C64.4,39.3,64.4,40.1,65,40.5L65,40.5z"/><path class="st0" d="M69.9,34.4c0.6,0.3,0.6,0.9,0.3,1.4c-0.4,0.7-0.9,0.9-1.4,0.7l0.2-0.3c0.4,0.1,0.7-0.1,1-0.5
			c0.2-0.4,0.2-0.8-0.2-0.9c-0.3-0.2-0.5,0.1-0.9,0.5c-0.4,0.5-0.8,0.8-1.2,0.6c-0.5-0.2-0.6-0.8-0.3-1.4c0.3-0.6,0.8-0.8,1.2-0.7
			l-0.2,0.3c-0.3,0-0.6,0.1-0.8,0.5c-0.2,0.4-0.1,0.8,0.2,0.9c0.2,0.1,0.4,0,0.8-0.5C69.1,34.5,69.4,34.1,69.9,34.4L69.9,34.4z"/><path class="st0" d="M70.8,31.5l-0.4,1.3l0.8,0.6l-0.1,0.4l-2.6-2.1l0.1-0.4l3.3-0.3l-0.1,0.4L70.8,31.5L70.8,31.5z M70.5,31.5
			l-1.6,0.1l1.2,1C70.1,32.6,70.5,31.5,70.5,31.5z"/><path class="st0" d="M69.5,27l3,0.4l-0.1,0.4l-2.8,1.3l1.3,0.1l1.3,0.2l-0.1,0.4l-3-0.4l0.1-0.4l2.8-1.3l-1.3-0.1l-1.3-0.2
			L69.5,27z"/><path class="st0" d="M71.1,23.4c0.9,0,1.5,0.7,1.5,1.6v1h-3v-1C69.6,24.1,70.2,23.4,71.1,23.4z M71.1,23.8c-0.7,0-1.2,0.5-1.2,1.2
			v0.7h2.4V25C72.3,24.3,71.8,23.8,71.1,23.8z"/><path class="st0" d="M70.5,19.3c0.9-0.1,1.7,0.4,1.8,1.3c0.1,0.9-0.4,1.7-1.3,1.8s-1.7-0.4-1.8-1.3C69.1,20.3,69.6,19.5,70.5,19.3
			z M71,22.1c0.7-0.1,1.1-0.7,1-1.4s-0.7-1.1-1.4-1c-0.7,0.1-1.1,0.7-1,1.4C69.7,21.8,70.3,22.2,71,22.1L71,22.1z"/><path class="st0" d="M67.3,15l2.8-1.2l0.2,0.4l-1.7,2.6l1.2-0.5l1.2-0.5l0.1,0.3l-2.8,1.2l-0.2-0.4l1.7-2.6l-1.2,0.5l-1.2,0.5
			L67.3,15L67.3,15z"/><path class="st0" d="M66.9,13.7l0.8-0.5L67,11.9l0.3-0.2l0.8,1.2l0.9-0.6l-0.8-1.3l0.3-0.2l1,1.6l-2.6,1.6l-1-1.6l0.3-0.2
			L66.9,13.7L66.9,13.7z"/><path class="st0" d="M66.4,8.5L66,10l1.5-0.2l0.3,0.3l-1.8,0.3L65.5,12l-0.3-0.3l0.4-1.4l-1.4,0.2l-0.3-0.3l1.8-0.3l0.5-1.8
			L66.4,8.5L66.4,8.5z"/><path class="st0" d="M62,8.1l0.8,0.6l1.7-2.1l0.3,0.2L63,9l0.8,0.6l-0.2,0.3l-1.8-1.5L62,8.1L62,8.1z"/><path class="st0" d="M58.2,4.4c0.4-0.8,1.3-1,2.1-0.6l0.9,0.5L59.8,7l-0.9-0.5C58.1,6.1,57.8,5.2,58.2,4.4z M58.5,4.6
			c-0.3,0.6-0.1,1.3,0.5,1.6l0.6,0.3l1.1-2.1l-0.6-0.3C59.5,3.8,58.8,4,58.5,4.6z"/><path class="st0" d="M56.4,5l0.3-0.9l-1.4-0.5l0.1-0.3l1.4,0.5l0.4-1l-1.5-0.5L55.9,2l1.8,0.7l-1.1,2.8l-1.8-0.7L55,4.5L56.4,5
			L56.4,5z"/><path class="st0" d="M52.9,1.5L53,1.2l1.8,0.4L54,4.6l-0.3-0.1l0.7-2.6L52.9,1.5L52.9,1.5z"/><path class="st0" d="M51.5,4l-0.3-0.1l0.6-3L52,1L51.5,4z"/><path class="st0" d="M47.6,3.4l1.5-2.9l0.5,0.1l0.7,3.2l-0.4,0L49.3,1L48,3.5L47.6,3.4L47.6,3.4z"/><path class="st0" d="M46.4,3l0.1-1L45,1.9l0-0.3l1.5,0.1l0.1-1L45,0.5l0-0.3L47,0.3l-0.2,3l-1.9-0.1l0-0.3L46.4,3L46.4,3z"/><path class="st0" d="M43.1,1.3l0.6,0l0-1.2h0.4L44,3.2l-1.2,0c-0.7,0-1-0.4-1-1c0-0.5,0.3-0.8,0.9-0.9L41.7,0l0.5,0L43.1,1.3
			L43.1,1.3z M43.7,1.6l-0.8,0c-0.5,0-0.7,0.2-0.7,0.6c0,0.3,0.2,0.6,0.7,0.6l0.8,0C43.6,2.8,43.7,1.6,43.7,1.6z"/><path class="st0" d="M39.6,1.1V0h0.4v1.1l1.1,2h-0.4l-0.9-1.6L38.8,3h-0.4L39.6,1.1L39.6,1.1z"/><path class="st0" d="M33.4,3V0h0.3v1.4h1.8V0h0.4v3h-0.3V1.7h-1.8V3L33.4,3L33.4,3z"/><path class="st0" d="M30.4,1l1.4,0L32.1,0h0.4l-1.1,3.1h-0.5l-1.3-3H30C30,0.1,30.4,1,30.4,1z M30.5,1.3l0.6,1.4l0.5-1.5L30.5,1.3
			L30.5,1.3z"/><path class="st0" d="M26.9,0.2l1.5,1.4l-0.1-1.5l0.4,0l0.2,3l-0.4,0l-0.1-1.4l-1.3,1.5l-0.5,0L28,1.7l-1.6-1.5L26.9,0.2L26.9,0.2z
			"/><path class="st0" d="M23.7,0.5l1.6,1.3l-0.2-1.5l0.4,0l0.3,3l-0.4,0L25.3,2L24,3.5l-0.5,0l1.3-1.6l-1.6-1.4L23.7,0.5L23.7,0.5z"/><path class="st0" d="M19.5,2.7c-0.2-0.9,0.4-1.7,1.2-1.8s1.7,0.4,1.8,1.3C22.7,3,22.2,3.8,21.3,4C20.4,4.2,19.6,3.6,19.5,2.7z
			 M22.2,2.2c-0.1-0.7-0.8-1.1-1.4-1c-0.7,0.1-1.1,0.7-1,1.4c0.1,0.7,0.8,1.1,1.4,1C21.9,3.5,22.3,2.9,22.2,2.2z"/><path class="st0" d="M14.8,3.7l1.3-0.5v-1L16.4,2v3.3L16,5.5l-2.2-2.4L14.1,3L14.8,3.7L14.8,3.7z M15,3.9l1.1,1.1V3.5
			C16.1,3.5,15,3.9,15,3.9z"/><path class="st0" d="M12.1,7.5l-1.5-2.6l0.4-0.2L13.7,6L13,4.9l-0.6-1.1l0.3-0.2l1.5,2.6l-0.4,0.2l-2.8-1.3l0.7,1.1l0.6,1.1
			L12.1,7.5L12.1,7.5z"/><path class="st0" d="M8,6.8l2,0.3L9.1,5.9l0.3-0.2l1.9,2.4L11,8.3l-0.9-1.1l-0.2,2L9.5,9.4l0.2-2.1L7.6,7.1L8,6.8L8,6.8z"/><path class="st0" d="M5.8,11.2C5.2,10.6,5.1,9.6,5.7,9s1.5-0.7,2.2-0.1c0.7,0.6,0.7,1.6,0.1,2.2C7.5,11.7,6.5,11.8,5.8,11.2
			L5.8,11.2z M7.7,9.1C7.2,8.7,6.4,8.7,6,9.2s-0.4,1.2,0.1,1.7c0.5,0.5,1.3,0.4,1.7-0.1C8.2,10.3,8.2,9.6,7.7,9.1L7.7,9.1z"/><path class="st0" d="M2.7,15.3c-0.6-0.3-0.6-0.9-0.3-1.4c0.4-0.7,0.9-0.9,1.4-0.7l-0.2,0.3c-0.4-0.1-0.7,0.1-1,0.5
			c-0.2,0.4-0.2,0.8,0.2,0.9c0.3,0.1,0.5-0.1,0.9-0.5c0.4-0.5,0.8-0.8,1.2-0.6c0.5,0.2,0.6,0.8,0.3,1.4C5,15.8,4.5,16,4,15.9
			l0.2-0.3c0.3,0,0.6-0.1,0.8-0.5c0.2-0.4,0.1-0.8-0.2-0.9c-0.2-0.1-0.4,0-0.8,0.5C3.5,15.2,3.2,15.5,2.7,15.3L2.7,15.3z"/><path class="st0" d="M1.8,18.2l0.4-1.4l-0.8-0.6l0.1-0.4l2.5,2.1L4,18.4l-3.3,0.3l0.1-0.4L1.8,18.2L1.8,18.2z M2.2,18.2L3.7,18
			l-1.2-1L2.2,18.2z"/><path class="st0" d="M3.1,22.7l-3-0.4l0.1-0.4l2.8-1.3l-1.3-0.1l-1.3-0.2l0.1-0.4l3,0.4l-0.1,0.4L0.6,22l1.3,0.1l1.3,0.2L3.1,22.7
			z"/><path class="st0" d="M1.5,26.3c-0.9,0-1.5-0.7-1.5-1.6v-1l3,0v1C3,25.6,2.4,26.3,1.5,26.3z M1.5,25.9c0.7,0,1.2-0.5,1.2-1.2v-0.7
			H0.3v0.7C0.3,25.4,0.8,25.9,1.5,25.9L1.5,25.9z"/><path class="st0" d="M2.1,30.3c-0.9,0.1-1.7-0.4-1.8-1.3c-0.1-0.9,0.4-1.7,1.3-1.8s1.7,0.4,1.8,1.3C3.5,29.4,3,30.2,2.1,30.3
			L2.1,30.3z M1.6,27.6c-0.7,0.1-1.1,0.7-1,1.4s0.7,1.1,1.4,1s1.1-0.7,1-1.4C2.9,27.9,2.3,27.5,1.6,27.6z"/><path class="st0" d="M5.3,34.7l-2.8,1.2l-0.2-0.4L4,32.9l-1.2,0.5L1.6,34l-0.1-0.3l2.8-1.2l0.2,0.4l-1.7,2.6L4,34.9l1.2-0.5
			L5.3,34.7L5.3,34.7z"/><path class="st0" d="M5.6,36l-0.8,0.5l0.8,1.2L5.3,38l-0.8-1.2l-0.9,0.6l0.8,1.3l-0.3,0.2l-1-1.6l2.6-1.6l1,1.6l-0.3,0.2L5.6,36
			L5.6,36z"/><path class="st0" d="M6.1,41.1l0.4-1.4l-1.5,0.2l-0.3-0.3l1.8-0.3l0.5-1.7L7.4,38L7,39.3l1.4-0.2l0.3,0.3l-1.8,0.2l-0.5,1.8
			C6.4,41.5,6.1,41.1,6.1,41.1z"/><path class="st0" d="M10.6,41.6L9.9,41L8.1,43l-0.3-0.2l1.8-2.1l-0.8-0.6l0.2-0.3l1.8,1.5L10.6,41.6L10.6,41.6z"/><path class="st0" d="M14.4,45.2c-0.4,0.8-1.3,1-2.1,0.6l-0.9-0.5l1.4-2.7l0.9,0.5C14.5,43.6,14.8,44.5,14.4,45.2z M14.1,45.1
			c0.3-0.6,0.1-1.3-0.5-1.6L13,43.2l-1.1,2.1l0.6,0.3C13.1,45.9,13.7,45.7,14.1,45.1z"/><path class="st0" d="M16.1,44.7l-0.3,0.9l1.4,0.5L17,46.4l-1.4-0.5l-0.4,1l1.5,0.5l-0.1,0.3l-1.8-0.7l1.1-2.8l1.8,0.7l-0.1,0.3
			L16.1,44.7L16.1,44.7z"/><path class="st0" d="M19.6,48.2l-0.1,0.3l-1.8-0.5l0.8-3l0.4,0.1l-0.7,2.6L19.6,48.2L19.6,48.2z"/><path class="st0" d="M21.1,45.7l0.4,0.1l-0.6,3l-0.4-0.1L21.1,45.7z"/><path class="st0" d="M24.9,46.3l-1.5,2.9L23,49.1L22.3,46l0.4,0l0.6,2.7l1.3-2.5L24.9,46.3L24.9,46.3z"/><path class="st0" d="M26.1,46.7l-0.1,1l1.5,0.1l0,0.3L26,48l-0.1,1l1.6,0.1l0,0.3l-1.9-0.1l0.2-3l1.9,0.1l0,0.3L26.1,46.7
			L26.1,46.7z"/><path class="st0" d="M29.5,48.4l-0.6,0l0,1.2h-0.4l0.1-3.1l1.2,0c0.7,0,1,0.4,1,1c0,0.5-0.3,0.8-0.9,0.9l0.9,1.2l-0.5,0L29.5,48.4
			L29.5,48.4z M28.9,48.1l0.8,0c0.5,0,0.7-0.2,0.7-0.6s-0.2-0.6-0.7-0.6l-0.8,0C29,46.9,28.9,48.1,28.9,48.1z"/><path class="st0" d="M33,48.6l0,1.1h-0.4l0-1.1l-1.1-2H32l0.9,1.6l0.9-1.5h0.4L33,48.6L33,48.6z"/></g></g><g><path class="st1" d="M36.4,45.7L36.4,45.7c-9.3,0-15.9-0.3-21.8-4.2C9.1,37.9,6,32.1,5.9,25.2l0-0.4c0-7,3.1-12.9,8.7-16.6
		C20.5,4.3,27.1,4,35.9,4h0.4C45.6,4,52.1,4.3,58,8.2c5.6,3.7,8.7,9.6,8.7,16.6l0,0.4c-0.1,6.9-3.2,12.6-8.7,16.3
		C52.1,45.4,45.3,45.7,36.4,45.7z"/></g></svg>