<?xml version="1.0" encoding="UTF-8"?><svg id="_レイヤー_2" data-name="レイヤー 2" xmlns="http://www.w3.org/2000/svg" viewBox="0 0 786.28 634.28"><defs><style>.cls-1 {
        fill: #fff;
        stroke: #fff;
        stroke-miterlimit: 10;
        stroke-width: .28px;
      }</style></defs><g id="_レイヤー_1-2" data-name="レイヤー 1"><path class="cls-1" d="m737.82,90.89C695.99,33.58,629.37,1.36,550.2.17l-4.39-.03c-59.51,0-112.05,17.37-152.69,49.73C353.5,18.38,302.51,1.04,244.85.17l-4.39-.03C159.35.14,91.17,32.37,48.46,90.89,3.5,152.49.14,220.47.14,317.14v4.56c.09,91.17,3.62,160.44,48.32,221.69,42.71,58.52,110.89,90.75,192.02,90.75l4.08-.03c57.78-.8,108.87-18.15,148.56-49.7,40.64,32.36,93.18,49.73,152.71,49.73l4.08-.03c79.28-1.1,146.02-33.32,187.91-90.72,44.96-61.61,48.32-129.58,48.32-226.25v-.54c-.01-93.4-3.48-164.27-48.32-225.7Z"/></g></svg>