<?xml version="1.0" encoding="UTF-8"?><svg id="_レイヤー_2" data-name="レイヤー 2" xmlns="http://www.w3.org/2000/svg" viewBox="0 0 123.1 84.29"><defs><style>.cls-1 {
        fill: #fff;
      }

      .cls-2 {
        fill: #c4a25c;
      }</style></defs><g id="_デザイン" data-name="デザイン"><g><path class="cls-2" d="m61.66,84.29h-.1c-18.77,0-31.97-.59-43.93-8.47C6.48,68.47.22,56.77,0,42.86v-.72c0-14.23,6.25-26.18,17.61-33.67C29.51.63,42.96.02,60.66,0h.89c18.77,0,31.97.59,43.93,8.47,11.36,7.49,17.62,19.45,17.62,33.67v.77c-.24,13.88-6.49,25.57-17.62,32.9-11.93,7.86-25.69,8.47-43.82,8.47Z"/><path class="cls-1" d="m60.67.8c-17.56.02-30.9.63-42.6,8.34C6.93,16.48.8,28.2.8,42.14v.71c.22,13.63,6.34,25.1,17.26,32.29,11.78,7.76,24.86,8.34,43.49,8.34h.1c18.56,0,31.61-.58,43.38-8.34,10.9-7.19,17.03-18.64,17.25-32.24v-.76c0-13.94-6.12-25.67-17.25-33C93.27,1.38,80.18.8,61.55.8h-.89Z"/></g></g></svg>